<svg id="Layer_1" data-name="Layer 1" xmlns="http://www.w3.org/2000/svg" viewBox="0 0 512 512"><defs><style>.cls-1{fill:#ed755d;}.cls-2{fill:#e5decf;}.cls-3{fill:#f4607f;}.cls-4{fill:#dfe4ea;}.cls-5{fill:#ccd4dd;}.cls-6{opacity:0.1;}.cls-7{fill:#231f20;}</style></defs><title>drugs-flat</title><path class="cls-1" d="M378.62,150.78l-13.82-4.61V121.6H147.2v24.58l-13.82,4.61A63.86,63.86,0,0,0,89.6,211.46V492.8A19.17,19.17,0,0,0,108.8,512H403.2a19.17,19.17,0,0,0,19.2-19.2V211.46A63.86,63.86,0,0,0,378.62,150.78Z"/><rect class="cls-2" x="89.6" y="230.4" width="332.8" height="217.6"/><path class="cls-3" d="M309.11,341.65a33.84,33.84,0,0,0,0-49.74,38.67,38.67,0,0,0-52.58,0l-.53.5-.52-.5a38.69,38.69,0,0,0-52.58,0,33.82,33.82,0,0,0,0,49.74L256,390.4Z"/><rect class="cls-4" x="108.8" width="294.4" height="121.6" rx="19.2" ry="19.2"/><rect class="cls-5" x="160" width="38.4" height="121.6"/><rect class="cls-5" x="236.8" width="38.4" height="121.6"/><rect class="cls-5" x="313.6" width="38.4" height="121.6"/><g class="cls-6"><path class="cls-7" d="M422.4,211.46V492.8A19.17,19.17,0,0,1,403.2,512H256V0H384a19.17,19.17,0,0,1,19.2,19.2v83.2A19.17,19.17,0,0,1,384,121.6H364.8v24.58l13.82,4.61A63.86,63.86,0,0,1,422.4,211.46Z"/></g></svg>