<svg id="Layer_1" data-name="Layer 1" xmlns="http://www.w3.org/2000/svg" viewBox="0 0 512 512"><defs><style>.cls-1{fill:#cc4c6a;}.cls-2{fill:#f4607f;}.cls-3{fill:#fff;}.cls-4{opacity:0.1;}.cls-5{fill:#231f20;}</style></defs><title>heart-baloon-flat</title><path class="cls-1" d="M240.86,512c-15.28-18.5-23.32-37.75-23.91-57.22-.58-17.68,5-30.12,10.32-42.15,3.56-8,7.24-16.27,9.56-27.32,1.69-8,2.46-20.53,2.12-34.46l38.92-1c.3,12.08,0,29.43-2.95,43.44-3.16,15.07-8.1,26.19-12.08,35.12-4.37,9.81-7.26,16.3-7,25.09.33,10.68,5.38,22,15,33.66Z"/><path class="cls-2" d="M388.3,30.37A101.88,101.88,0,0,0,284.23,5a99.78,99.78,0,0,0-28.29,14.47.06.06,0,0,1-.06-.06,101.7,101.7,0,0,0-132.23,11c-39.84,40.23-39.84,105.76.19,146.25L229.6,280.43,182.43,338a19.47,19.47,0,0,0,15.05,31.79H314.27A19.47,19.47,0,0,0,329.32,338l-47.11-57.55L388.11,176.61l.19-.19a104.1,104.1,0,0,0,0-146.05Z"/><path class="cls-3" d="M353.2,103.81H314.27V64.88A39,39,0,0,1,353.2,103.81Z"/><g class="cls-4"><path class="cls-5" d="M418.21,103.36a103.4,103.4,0,0,1-29.91,73.06l-.19.19L282.22,280.49,329.32,338a19.47,19.47,0,0,1-15.05,31.79h-58.4V19.4a.06.06,0,0,0,.06.06A99.78,99.78,0,0,1,284.23,5,101.88,101.88,0,0,1,388.3,30.37,103.14,103.14,0,0,1,418.21,103.36Z"/></g></svg>