<svg id="Layer_1" data-name="Layer 1" xmlns="http://www.w3.org/2000/svg" viewBox="0 0 512 512"><defs><style>.cls-1{fill:#e5decf;}.cls-2{fill:#f4607f;}.cls-3{fill:#fff;}.cls-4{fill:#f7f0e2;}.cls-5{opacity:0.1;}.cls-6{fill:#231f20;}</style></defs><title>envelope-flat</title><path class="cls-1" d="M512,224V448a64.11,64.11,0,0,1-64,64H64A64.11,64.11,0,0,1,0,448V224a19.22,19.22,0,0,1,6.66-14.53L76.8,148.8l68.48-59.2L243.46,4.67a19.18,19.18,0,0,1,25.09,0L366.72,89.6l68.48,59.2,70.14,60.67A19.22,19.22,0,0,1,512,224Z"/><path class="cls-2" d="M435.2,108.8V254.59a19.17,19.17,0,0,1-8.77,16.13l-160,103.81a19.25,19.25,0,0,1-20.86,0l-160-103.81a19.17,19.17,0,0,1-8.77-16.13V108.8A19.17,19.17,0,0,1,96,89.6H416A19.17,19.17,0,0,1,435.2,108.8Z"/><path class="cls-3" d="M309.11,236.38a37.21,37.21,0,0,0-52.58-52.66l-.53.53-.53-.53a37.21,37.21,0,0,0-52.58,52.66L256,288Z"/><path class="cls-4" d="M256,400.48,512,234.56V224a19.21,19.21,0,0,0-6.64-14.52l-10.83-9.36L256,354.72,17.62,200l-11,9.5A19.21,19.21,0,0,0,0,224v10.31Z"/><g class="cls-5"><path class="cls-6" d="M512,224V448a64.11,64.11,0,0,1-64,64H256V0a19,19,0,0,1,12.54,4.67L366.72,89.6H416a19.17,19.17,0,0,1,19.2,19.2v40l70.14,60.67A19.22,19.22,0,0,1,512,224Z"/></g></svg>