<svg id="Layer_1" data-name="Layer 1" xmlns="http://www.w3.org/2000/svg" viewBox="0 0 512 512"><defs><style>.cls-1{fill:#f4607f;}.cls-2{fill:#fff;}.cls-3{fill:#e5decf;}.cls-4{fill:#afa58b;}.cls-5{opacity:0.1;}.cls-6{fill:#231f20;}</style></defs><title>phone-flat</title><rect class="cls-1" x="96" y="76.8" width="320" height="320"/><path class="cls-2" d="M309.11,242.78a37.21,37.21,0,1,0-52.58-52.66l-.53.53-.53-.53a37.21,37.21,0,1,0-52.58,52.66L256,294.4Z"/><path class="cls-3" d="M416,396.8v96A19.17,19.17,0,0,1,396.8,512H115.2A19.17,19.17,0,0,1,96,492.8v-96Z"/><path class="cls-3" d="M416,19.2V76.8H96V19.2A19.17,19.17,0,0,1,115.2,0H396.8A19.17,19.17,0,0,1,416,19.2Z"/><circle class="cls-4" cx="256" cy="454.4" r="19.2"/><rect class="cls-4" x="224" y="25.6" width="64" height="25.6"/><g class="cls-5"><path class="cls-6" d="M416,19.2V492.8A19.17,19.17,0,0,1,396.8,512H256V0H396.8A19.17,19.17,0,0,1,416,19.2Z"/></g></svg>