<svg id="Layer_1" data-name="Layer 1" xmlns="http://www.w3.org/2000/svg" viewBox="0 0 512 512"><defs><style>.cls-1{fill:#cee4ed;}.cls-2{fill:#f4607f;}.cls-3,.cls-6{opacity:0.1;}.cls-4,.cls-6{fill:#231f20;}.cls-5{fill:#c1d9e0;}</style></defs><title>drinks-flat</title><path class="cls-1" d="M217.6,185.6V320a96,96,0,1,1-192,0V185.6a19.17,19.17,0,0,1,19.2-19.2H198.4A19.17,19.17,0,0,1,217.6,185.6Z"/><path class="cls-1" d="M467.2,166.4H313.6a19.2,19.2,0,0,0-19.2,19.2V320a96,96,0,1,0,192,0V185.6A19.2,19.2,0,0,0,467.2,166.4Z"/><path class="cls-2" d="M179.2,281.6H64V320a57.6,57.6,0,1,0,115.2,0Z"/><path class="cls-2" d="M448,281.6H332.8V320A57.6,57.6,0,0,0,448,320Z"/><path class="cls-2" d="M320,37.25a37.14,37.14,0,0,1-10.89,26.33L256,115.2,202.9,63.58a37.21,37.21,0,1,1,52.58-52.66l.52.53.53-.53A37.18,37.18,0,0,1,320,37.25Z"/><g class="cls-3"><path class="cls-4" d="M217.6,185.6V320a96.12,96.12,0,0,1-96,96V166.4h76.8A19.17,19.17,0,0,1,217.6,185.6Z"/></g><g class="cls-3"><path class="cls-4" d="M486.4,185.6V320a96.12,96.12,0,0,1-96,96V166.4h76.8A19.17,19.17,0,0,1,486.4,185.6Z"/></g><path class="cls-5" d="M140.8,414.07a96.42,96.42,0,0,1-38.4,0V473.6H64V512H179.2V473.6H140.8Z"/><path class="cls-5" d="M409.6,414.07a96.46,96.46,0,0,1-38.4,0V473.6H332.8V512H448V473.6H409.6Z"/><path class="cls-6" d="M320,37.25a37.14,37.14,0,0,1-10.89,26.33L256,115.2V11.45l.53-.53A37.18,37.18,0,0,1,320,37.25Z"/></svg>