<svg id="Layer_1" data-name="Layer 1" xmlns="http://www.w3.org/2000/svg" viewBox="0 0 512 512"><defs><style>.cls-1{fill:#bfc9d1;}.cls-2{fill:#f4607f;}.cls-3{opacity:0.1;}.cls-4{fill:#231f20;}</style></defs><title>key-flat</title><path class="cls-1" d="M19.2,512A19.2,19.2,0,0,1,5.63,479.23l220.8-220.8a19.2,19.2,0,0,1,27.15,27.15L32.78,506.38A19.13,19.13,0,0,1,19.2,512Z"/><path class="cls-1" d="M89.6,512A19.13,19.13,0,0,1,76,506.38l-35.2-35.2A19.2,19.2,0,0,1,68,444l35.2,35.2A19.2,19.2,0,0,1,89.6,512Z"/><path class="cls-1" d="M140.8,467.2a19.13,19.13,0,0,1-13.58-5.62l-38.4-38.4A19.2,19.2,0,0,1,116,396l38.4,38.4A19.2,19.2,0,0,1,140.8,467.2Z"/><path class="cls-2" d="M416,102.4h-6.4V96a96,96,0,1,0-192,0V294.4H416a96,96,0,1,0,0-192Zm0,128H281.6V96a32,32,0,0,1,64,0v70.4H416a32,32,0,0,1,0,64Z"/><g class="cls-3"><path class="cls-4" d="M512,198.4a96,96,0,0,1-96,96H217.6l64-64H416a32,32,0,0,0,0-64H345.6l64-64H416A96,96,0,0,1,512,198.4Z"/></g></svg>