<svg id="Layer_1" data-name="Layer 1" xmlns="http://www.w3.org/2000/svg" viewBox="0 0 512 512"><defs><style>.cls-1{fill:#78b75e;}.cls-2{fill:#f4607f;}.cls-3,.cls-8{opacity:0.1;}.cls-4,.cls-8{fill:#231f20;}.cls-5{fill:#d15472;}.cls-6{fill:#c64f71;}.cls-7{fill:#af4367;}</style></defs><title>rose-flat</title><path class="cls-1" d="M372.65,322.06A96.34,96.34,0,0,0,275.2,333V262.4H236.8V384.21a96.29,96.29,0,0,0-97.45-10.95l-12.46,5.58,1.19,13.6c4.27,49.1,46.46,87.55,96.06,87.55a98.39,98.39,0,0,0,12.67-.81V512h38.4V427.94a94.5,94.5,0,0,0,12.67.86c49.59,0,91.79-38.46,96.06-87.55l1.19-13.6Z"/><path class="cls-2" d="M375.55,208.51c-1,2-2.11,4-3.2,6l-2.56,4.1v.06a135.52,135.52,0,0,1-19.2,24.06A133.23,133.23,0,0,1,256,281.6c-74.11,0-134.4-60.29-134.4-134.4V64h19.2A261.84,261.84,0,0,1,256,90.69q9.31,4.51,18.24,9.79A263.12,263.12,0,0,1,370.3,199Z"/><g class="cls-3"><path class="cls-4" d="M375.55,208.51c-1,2-2.11,4-3.2,6l-2.56,4.1v.06a135.52,135.52,0,0,1-19.2,24.06A133.23,133.23,0,0,1,256,281.6V90.69q9.31,4.51,18.24,9.79A263.12,263.12,0,0,1,370.3,199Z"/></g><path class="cls-5" d="M371.2,64a147.18,147.18,0,0,0-97,36.48A263.12,263.12,0,0,1,370.3,199l5.25,9.47A133,133,0,0,0,390.4,147.2V64Z"/><path class="cls-6" d="M295.15,114.22q6,4.39,11.83,9.13Q301.2,118.62,295.15,114.22Z"/><path class="cls-6" d="M291.35,111.51q1.81,1.27,3.6,2.57Q293.16,112.78,291.35,111.51Z"/><path class="cls-6" d="M274.24,100.48q2,1.2,4,2.43Q276.26,101.68,274.24,100.48Z"/><path class="cls-6" d="M179.2,0H160V64.73a261.92,261.92,0,0,1,96,26q9.31,4.51,18.24,9.79a146.68,146.68,0,0,1,31.53-21.11C282.54,31.66,233.48,0,179.2,0Z"/><path class="cls-6" d="M279.43,103.64l2.85,1.8Z"/><path class="cls-6" d="M287.49,108.86q1.51,1,3,2.06Q289,109.88,287.49,108.86Z"/><path class="cls-6" d="M283.55,106.26l2.79,1.83Z"/><path class="cls-7" d="M295.15,114.22q2.94,2.14,5.83,4.37Q298.1,116.37,295.15,114.22Z"/><path class="cls-7" d="M297.45,83.84l-.08,0Z"/><path class="cls-7" d="M301.27,118.81q2.89,2.23,5.72,4.55Q304.16,121,301.27,118.81Z"/><path class="cls-7" d="M305.77,79.37A147.32,147.32,0,0,1,352,65.27V6.4H332.8A146.07,146.07,0,0,0,260,25.7,141.39,141.39,0,0,1,305.77,79.37Z"/><path class="cls-7" d="M285.23,91.74l.56-.4Z"/><path class="cls-7" d="M289.18,89l.26-.17Z"/><path class="cls-7" d="M277.5,97.71l.84-.69Z"/><path class="cls-7" d="M281.36,94.63l.34-.27Z"/><path class="cls-8" d="M275.2,382.16v45.78a94.5,94.5,0,0,0,12.67.86c49.59,0,91.79-38.46,96.06-87.55l1.19-13.6Z"/><path class="cls-8" d="M236.8,436,126.89,378.84l1.19,13.6c4.27,49.1,46.46,87.55,96.06,87.55a98.39,98.39,0,0,0,12.67-.81Z"/></svg>