<svg id="Layer_1" data-name="Layer 1" xmlns="http://www.w3.org/2000/svg" viewBox="0 0 512 512"><defs><style>.cls-1{fill:#f4607f;}.cls-2{fill:#e5decf;}.cls-3{opacity:0.06;}.cls-4{fill:#231f20;}</style></defs><title>cards-flat</title><path class="cls-1" d="M427.29,57.83,242.54,24.68a64,64,0,0,0-74.3,51.69l-58.7,327.16a64,64,0,0,0,51.69,74.3L346,511a64.49,64.49,0,0,0,11.44,1,64,64,0,0,0,62.86-52.72L479,132.12A64.07,64.07,0,0,0,427.29,57.83Z"/><rect class="cls-2" x="32" width="332.79" height="486.39" rx="64" ry="64"/><path class="cls-1" d="M251.51,249.18a37.21,37.21,0,0,0-52.58-52.66l-.53.53-.52-.53a37.21,37.21,0,0,0-52.58,52.66l53.1,51.62Z"/><path class="cls-1" d="M141.76,83a18.6,18.6,0,1,0-26.29-26.33l-.26.26-.26-.26A18.6,18.6,0,1,0,88.65,83L115.2,108.8Z"/><path class="cls-1" d="M308.15,409.38a18.6,18.6,0,0,0-26.29-26.33l-.26.26-.26-.26a18.6,18.6,0,1,0-26.29,26.33l26.55,25.81Z"/><g class="cls-3"><path class="cls-4" d="M364.8,64V422.39a64.1,64.1,0,0,1-64,64H198.4V0H300.8A64.1,64.1,0,0,1,364.8,64Z"/></g></svg>