<svg width="352" height="355" viewBox="0 0 352 355" fill="none" xmlns="http://www.w3.org/2000/svg">
<path d="M208.798 27.2955L210.959 10.4462C211.318 7.65481 210.709 5.71714 209.142 4.61879C208.118 3.88017 207.132 3.41489 206.184 3.21825L217.868 4.7675C216.933 4.71474 215.876 4.91136 214.706 5.36221C212.941 6.05287 211.884 7.76991 211.53 10.5278L207.585 41.291L207.533 41.2863L207.203 40.6052L188.95 7.80828C188.309 6.80106 187.761 6.74836 187.294 7.64046C187.101 8.03855 186.964 8.59006 186.874 9.28552L184.132 30.6817C183.981 31.8712 184.033 32.9216 184.302 33.8424C184.567 34.7633 184.972 35.5019 185.51 36.0487C186.048 36.5955 186.539 37.0176 186.973 37.3053C187.407 37.5931 187.856 37.8233 188.323 37.9912L188.927 38.1782L177.035 36.6051C177.479 36.6627 178.158 36.5571 179.064 36.2885C181.674 35.5355 183.174 33.6218 183.571 30.5522L186.308 9.20399C186.478 7.88022 186.482 6.66683 186.327 5.56369C186.171 4.46534 185.926 3.59718 185.586 2.96407C185.246 2.33097 184.864 1.78422 184.434 1.32377C184.005 0.858536 183.627 0.541992 183.297 0.374123C182.971 0.206253 182.703 0.110306 182.5 0.0815283L182.301 0L191.05 1.16064L206.316 28.6672C206.844 29.732 207.354 30.2404 207.849 30.2021C208.232 30.1829 208.548 29.214 208.798 27.2955Z" fill="#767070"/>
<path d="M240.57 11.7995L240.56 47.6996C240.565 48.9466 240.801 50.117 241.273 51.2105C241.919 52.5247 242.75 53.4168 243.755 53.8916L230.792 48.7548C231.014 48.8459 231.552 48.9035 232.392 48.9371C232.939 48.9659 233.402 48.8651 233.784 48.6397C234.987 47.8339 235.525 46.7596 235.407 45.431L235.648 34.4859L224.478 30.0589L218.108 37.2198C216.853 38.4572 216.31 39.7235 216.484 41.0184C216.654 42.3134 217.57 43.3638 219.231 44.1743L209.656 40.3757C212.105 41.1575 214.734 39.9728 217.537 36.8169L240.588 11.2959L240.57 11.7995ZM235.374 18.8021C234.921 18.6246 233.77 19.603 231.91 21.7326L224.912 29.6608L235.667 33.8624L236.011 22.2218C236.039 20.1258 235.827 18.9843 235.374 18.8021Z" fill="#767070"/>
<path d="M253.021 61.9131L258.901 25.3416C259.232 22.4062 258.269 20.1807 256.018 18.6699L260.048 21.3702L265.291 24.8812L269.453 27.6678L268.919 27.4375C267.91 26.8859 266.853 26.7085 265.758 26.8956C264.658 27.0874 263.913 28.0611 263.521 29.8213L259.6 51.7738C259.312 53.5628 259.453 54.6467 260.034 55.0352C260.411 55.2846 260.86 55.2943 261.388 55.0545C261.808 54.9154 262.917 54.2295 264.72 52.9873L279.339 42.6225C281.203 41.2172 282.165 39.8311 282.227 38.4593C282.288 37.0876 281.467 35.7926 279.773 34.5696L289.22 40.9007C287.861 40.3731 286.497 40.2243 285.119 40.4594C283.741 40.6944 282.123 41.4523 280.259 42.7329L253.021 61.9131Z" fill="#767070"/>
<path d="M287.78 87.6649C289.186 87.9719 290.545 88.1445 291.852 88.1877C293.159 88.226 294.122 88.1733 294.745 88.0246L295.632 87.8376L287.289 92.5713L267.861 71.1664C268.258 71.6076 268.975 72.0824 270.008 72.6004C271.353 73.2527 272.726 72.9217 274.128 71.6076L294.617 52.3993C296.014 51.09 296.411 49.7327 295.807 48.3418C295.429 47.3538 295.018 46.62 294.57 46.126L312.766 66.1736L307.891 73.2575C308.085 72.6916 308.25 71.6316 308.382 70.0681C308.547 68.3798 308.519 66.9218 308.297 65.694C308.047 63.9674 307.566 62.4758 306.858 61.2289C306.245 60.0346 304.881 58.2745 302.771 55.9484L300.591 53.5456L288.346 65.0321L290.314 67.2048C292.829 69.8714 295.528 70.5908 298.421 69.3678L298.907 69.128L291.012 76.5332C291.272 76.1927 291.526 75.598 291.781 74.7347C292.635 72.3079 292.008 69.929 289.898 67.6029L287.926 65.4303L277.894 74.8354C277.181 75.5068 276.667 76.1543 276.346 76.7874C276.03 77.4205 275.926 77.996 276.039 78.5092C276.152 79.0224 276.303 79.4492 276.487 79.7802C276.671 80.1111 276.912 80.4468 277.219 80.7777L279.437 83.2237C281.522 85.5162 284.307 86.9983 287.78 87.6649Z" fill="#767070"/>
<path d="M311.8 108.379L307.256 116.527C306.619 117.592 306.161 118.753 305.878 120.014C305.595 121.275 305.496 122.268 305.586 122.988L305.756 123.923L301.919 117.16C302.401 115.616 303.34 113.683 304.741 111.362L309.436 103.064C310.55 101.156 310.956 99.3331 310.649 97.6017C310.484 96.887 310.295 96.3499 310.088 95.9806C309.979 95.7216 309.856 95.4674 309.715 95.2228L308.861 93.7168L296.426 100.949C295.648 101.405 295.148 102.043 294.935 102.858C294.765 103.894 294.973 104.93 295.558 105.961L288.994 94.4027C289.287 94.9207 289.834 95.5298 290.636 96.2396C291.76 97.1604 293.114 97.1604 294.704 96.23L319.162 81.8848C320.781 80.9351 321.441 79.7121 321.153 78.2157C320.95 77.1558 320.719 76.398 320.46 75.9424C320.686 76.3405 321.814 78.2541 323.843 81.6929C325.542 84.4746 326.67 86.3883 327.227 87.4435C328.977 90.5993 330.081 93.1605 330.539 95.1269C330.997 97.0933 330.818 98.9062 329.997 100.561C329.303 102.225 327.982 103.592 326.028 104.657C323.338 106.115 320.667 106.297 318.015 105.218C316.222 104.523 314.811 103.443 313.778 101.976C314.127 103.395 313.462 105.535 311.8 108.379ZM311.947 97.4482C313.565 99.664 315.401 101.017 317.454 101.496C319.506 101.981 321.602 101.611 323.749 100.393C326.821 98.628 328.402 96.465 328.482 93.8991C328.562 91.3332 327.363 88.1149 324.891 84.2493L309.361 93.4195C310.276 95.0358 311.14 96.3787 311.947 97.4482Z" fill="#767070"/>
<path d="M347.968 152.167L340.823 153.778C342.282 152.81 343.754 151.054 345.231 148.498C346.571 146.301 347.246 143.961 347.251 141.476C347.251 138.958 346.557 136.915 345.165 135.352C344.344 134.483 343.32 133.951 342.093 133.754C340.866 133.553 339.644 133.692 338.44 134.172C335.071 135.481 333.401 138.958 333.42 144.599C333.434 149.702 332.688 153.443 331.169 155.826C329.654 158.21 327.181 159.572 323.75 159.922C320.452 160.392 317.753 159.591 315.658 157.534C313.633 155.491 312.279 152.838 311.59 149.572C310.448 143.994 310.783 139.208 312.595 135.217L322.217 133.011C319.47 134.762 317.257 137.021 315.577 139.802C313.879 142.656 313.006 145.563 312.958 148.522C312.987 151.5 313.633 153.898 314.903 155.706C316.186 157.62 318.078 158.359 320.575 157.922C322.726 157.563 324.439 156.359 325.704 154.325C326.94 152.292 327.606 148.838 327.71 143.961C327.804 139.697 328.583 136.613 330.06 134.709C331.603 132.79 333.707 131.611 336.373 131.174C339.271 130.651 341.791 131.361 343.938 133.304C346.156 135.265 347.623 138.023 348.336 141.572C348.694 143.256 348.85 144.973 348.817 146.728C348.779 148.479 348.619 149.874 348.341 150.905L347.968 152.167Z" fill="#767070"/>
<path d="M347.023 172.391L319.541 173.676C318.748 173.71 318.064 173.892 317.488 174.218C316.912 174.544 316.488 174.909 316.209 175.307C315.931 175.705 315.728 176.165 315.596 176.683C315.464 177.197 315.383 177.59 315.365 177.854C315.341 178.122 315.336 178.376 315.346 178.621L314.699 164.285C314.728 164.951 314.959 165.786 315.383 166.784C315.652 167.407 316.143 167.901 316.856 168.275C317.564 168.649 318.389 168.813 319.319 168.769L346.802 167.484C348.84 167.388 350.086 166.606 350.539 165.143C350.874 164.107 351.025 163.254 350.997 162.587L351.643 176.923C351.61 176.223 351.384 175.369 350.954 174.367C350.374 172.957 349.062 172.295 347.023 172.391Z" fill="#767070"/>
<path d="M351.998 186.193L348.062 216.527L339.238 216.729C341.267 216.148 343.103 215.189 344.745 213.846C347.048 211.956 348.43 209.266 348.879 205.779L349.124 203.894L318.248 199.756C316.224 199.482 314.789 200.053 313.94 201.468C313.421 202.494 313.119 203.362 313.029 204.057L314.931 189.415C314.841 190.077 314.922 190.974 315.157 192.106C315.615 193.693 316.856 194.619 318.881 194.892L349.756 199.031L350.044 196.835C350.488 193.42 349.808 190.451 348.006 187.943C347.038 186.499 345.778 185.195 344.221 184.03L343.452 183.502L351.998 186.193Z" fill="#767070"/>
<path d="M305.751 239.391C306.1 240.811 306.539 242.13 307.082 243.343C307.62 244.557 308.092 245.41 308.493 245.914L309.049 246.643L301.197 241.103L311.588 213.962C311.376 214.518 311.267 215.382 311.267 216.552C311.282 218.063 312.173 219.175 313.948 219.876L339.925 230.149C341.699 230.849 343.068 230.619 344.035 229.454C344.743 228.677 345.215 227.976 345.451 227.353L335.721 252.772L327.321 251.434C327.906 251.362 328.916 251.046 330.36 250.485C331.922 249.895 333.196 249.228 334.187 248.489C335.603 247.501 336.707 246.408 337.5 245.214C338.288 244.13 339.246 242.111 340.373 239.161L341.544 236.115L326.014 229.976L324.961 232.729C323.706 236.197 324.258 238.979 326.613 241.079L327.038 241.415L317.024 237.458C317.435 237.545 318.081 237.516 318.954 237.367C321.474 237.079 323.3 235.468 324.433 232.514L325.485 229.76L312.763 224.729C311.862 224.37 311.06 224.187 310.357 224.173C309.658 224.159 309.101 224.317 308.696 224.653C308.29 224.979 307.983 225.305 307.771 225.617C307.558 225.928 307.374 226.298 307.209 226.725L306.025 229.823C304.901 232.734 304.812 235.928 305.751 239.391Z" fill="#767070"/>
<path d="M273.537 282.663C272.735 283.488 272.296 284.466 272.221 285.593C272.145 286.721 272.462 287.809 273.169 288.86C272.089 287.761 271.39 286.361 271.055 284.663C270.701 283.042 271.107 281.507 272.263 280.059C273.24 278.869 274.269 278.049 275.354 277.588C276.44 277.128 277.836 277.003 279.545 277.214L284.509 277.776C283.768 274.361 283.433 271.655 283.499 269.655C283.589 267.631 284.382 265.694 285.877 263.852C287.51 261.847 289.435 260.681 291.644 260.36C293.928 260.058 296.066 260.806 298.043 262.619C299.558 263.689 300.567 265.799 301.068 268.955C301.176 269.473 301.181 270.346 301.091 271.569L300.883 274.054L300.445 276.888L300.029 279.531L301.03 279.651C304.144 279.987 306.188 280.337 307.169 280.696C308.453 281.181 309.599 281.876 310.614 282.783C312.256 284.289 313.044 286.068 312.969 288.102C312.893 290.14 312.081 292.083 310.534 293.93C309.354 295.354 307.83 296.294 305.97 296.74C304.206 297.133 302.535 296.673 300.954 295.359C298.562 293.272 297.642 290.423 298.189 286.797C298.198 286.572 298.293 285.982 298.477 285.018C298.661 284.054 298.769 283.426 298.793 283.128L285.868 281.795L286.67 285.665C287.529 289.047 288.496 291.181 289.572 292.069C290.648 292.956 292.021 292.855 293.692 291.771L286.868 299.714C287.505 298.97 287.921 297.8 288.109 296.189C288.237 295.133 288.19 294.016 287.963 292.836C287.704 291.531 287.331 289.939 286.84 288.049C286.392 286.433 286 284.778 285.67 283.08L285.396 281.713L280.323 281.195L277.586 281.008C275.826 281.075 274.477 281.632 273.537 282.663ZM287.675 267.051C285.59 269.262 284.783 272.864 285.254 277.871L299.595 279.483L299.709 277.828C299.841 274.955 299.69 272.672 299.26 270.979C298.831 269.286 297.925 267.828 296.547 266.6C295.141 265.348 293.635 264.749 292.031 264.792C290.431 264.845 288.978 265.593 287.675 267.051ZM308.722 285.713C307.641 284.888 306.499 284.318 305.3 284.001C304.154 283.728 302.346 283.478 299.883 283.243L299.293 283.21C299.185 284.188 299.161 284.912 299.213 285.382C299.336 288.764 300.666 291.488 303.205 293.565C304.394 294.529 305.659 295.057 306.985 295.143C308.316 295.229 309.439 294.74 310.345 293.68C311.487 292.404 311.93 291.081 311.666 289.704C311.407 288.323 310.425 286.989 308.722 285.713Z" fill="#767070"/>
<path d="M234.01 341.681L222.264 317.101C221.401 315.297 220.188 314.405 218.626 314.439C217.555 314.458 216.696 314.631 216.045 314.952L228.885 308.611C228.229 308.933 227.583 309.508 226.936 310.333C225.978 311.547 225.931 313.057 226.79 314.861L236.766 335.743C237.657 337.609 238.299 338.463 238.686 338.314C238.936 338.194 239.035 337.398 238.993 335.935L238.998 335.345L237.473 303.782L264.083 323.844C265.249 324.674 265.971 324.914 266.244 324.564C266.518 324.213 266.339 323.369 265.706 322.046L256.637 302.947C255.518 300.607 254.079 299.201 252.319 298.746C251.705 298.578 250.993 298.539 250.186 298.626C249.181 298.77 248.459 298.952 248.02 299.168L259.227 293.638C258.732 293.882 258.156 294.338 257.519 295.009C255.759 297.048 255.641 299.652 257.151 302.813L266.447 322.271C267.098 323.633 267.863 324.731 268.741 325.566C269.618 326.4 270.449 326.923 271.218 327.129C271.992 327.331 272.643 327.432 273.176 327.422C273.71 327.412 274.101 327.345 274.351 327.225L274.559 327.178L265.782 331.513L242.877 314.252C241.753 313.436 240.909 312.947 240.328 312.784C239.748 312.621 239.337 312.784 239.092 313.278C238.847 313.772 238.757 314.683 238.818 316.026L240.031 344.166L232.183 348.036C232.306 347.974 232.471 347.873 232.674 347.734C232.877 347.595 233.146 347.336 233.486 346.952C233.821 346.568 234.095 346.151 234.302 345.7C234.505 345.245 234.604 344.66 234.59 343.945C234.585 343.221 234.387 342.468 234.01 341.681Z" fill="#767070"/>
<path d="M191.229 321.764C190.205 322.796 189.318 323.855 188.572 324.944C187.822 326.038 187.336 326.882 187.123 327.491L186.793 328.35L187.463 318.661L215.724 313.855C215.144 313.956 214.356 314.301 213.37 314.896C212.096 315.683 211.614 317.031 211.93 318.939L216.531 346.882C216.843 348.791 217.744 349.87 219.221 350.114C220.24 350.335 221.071 350.388 221.722 350.278L195.254 354.776L192.092 346.757C192.451 347.232 193.239 347.951 194.452 348.925C195.749 349.99 196.962 350.762 198.095 351.246C199.657 351.98 201.143 352.388 202.559 352.469C203.88 352.599 206.074 352.407 209.146 351.884L212.322 351.342L209.571 334.642L206.707 335.131C203.134 335.812 201.063 337.716 200.492 340.844L200.421 341.39L198.651 330.618C198.788 331.021 199.142 331.568 199.709 332.254C201.242 334.311 203.545 335.078 206.612 334.556L209.481 334.067L207.226 320.383C207.065 319.409 206.81 318.613 206.466 317.995C206.117 317.376 205.701 316.978 205.215 316.791C204.729 316.604 204.3 316.498 203.927 316.474C203.554 316.45 203.149 316.474 202.705 316.551L199.477 317.098C196.424 317.616 193.682 319.17 191.229 321.764Z" fill="#767070"/>
<path d="M158.746 332.76L146.949 331.81C147.02 331.815 147.147 331.81 147.341 331.786C147.534 331.767 147.827 331.686 148.219 331.542C148.61 331.398 148.974 331.196 149.304 330.942C149.639 330.683 149.946 330.285 150.229 329.743C150.517 329.201 150.687 328.563 150.743 327.83L151.64 316.314C151.833 317.456 152.319 318.535 153.107 319.552C153.924 320.64 154.641 321.23 155.259 321.312L155.429 321.168C155.58 321.039 155.726 320.899 155.877 320.756C156.028 320.607 156.184 320.468 156.354 320.343C156.519 320.214 156.642 320.118 156.713 320.055C157.345 319.504 158.043 319.015 158.808 318.583C160.837 317.513 163.14 317.082 165.73 317.288C171.181 317.729 175.286 319.859 178.042 323.681C180.802 327.47 181.968 332.093 181.543 337.566C181.336 340.232 180.722 342.635 179.703 344.774C178.688 346.918 177.414 348.668 175.881 350.026C174.352 351.383 172.629 352.472 170.704 353.287C168.783 354.102 166.811 354.616 164.782 354.822C162.753 355.028 160.728 354.961 158.704 354.62C155.174 354.021 152.017 352.707 149.224 350.683L149.974 342.434C150.163 343.153 150.512 343.978 151.031 344.899C151.64 346.007 152.466 347.22 153.508 348.539C154.679 350.045 155.958 351.225 157.345 352.078C161.285 354.476 165.06 354.87 168.656 353.254C171.02 352.28 172.889 350.395 174.253 347.594C175.616 344.793 176.319 341.364 176.357 337.311C176.456 332.06 175.329 327.791 172.983 324.496C170.567 321.23 167.623 319.355 164.154 318.861C161.682 318.559 159.652 318.943 158.076 320.012C155.929 321.283 154.702 323.868 154.4 327.758L154.381 328.022C154.296 329.11 154.594 330.069 155.278 330.899C155.962 331.729 156.727 332.252 157.576 332.463L158.746 332.76Z" fill="#767070"/>
<path d="M121.921 347.468L120.161 311.617C120.095 310.37 119.797 309.214 119.274 308.144C118.566 306.864 117.693 306.015 116.664 305.593L129.863 310.063C129.632 309.986 129.094 309.952 128.254 309.962C127.706 309.962 127.249 310.087 126.876 310.331C125.715 311.199 125.229 312.293 125.413 313.622L125.71 324.566L137.087 328.418L143.095 320.94C144.288 319.641 144.765 318.346 144.529 317.06C144.293 315.775 143.33 314.773 141.632 314.048L151.381 317.348C148.899 316.691 146.332 318.01 143.684 321.305L121.921 347.967V347.468ZM126.762 340.207C127.225 340.365 128.329 339.329 130.08 337.103L136.677 328.825L125.729 325.175L125.96 336.82C126.036 338.926 126.305 340.053 126.762 340.207Z" fill="#767070"/>
<path d="M92.0179 312.245C91.0411 311.641 90.1729 310.945 89.4037 310.164C88.6345 309.377 87.955 308.437 87.3651 307.329C86.7752 306.221 86.544 304.917 86.6714 303.411C86.8035 301.91 87.3556 300.341 88.3277 298.72C90.2342 295.535 92.9475 294.02 96.4584 294.178C97.2983 294.202 98.2799 294.418 99.4077 294.83C101.196 295.569 102.919 296.447 104.575 297.468L118.826 306.346C118.175 305.948 117.292 305.626 116.179 305.387C115.49 305.248 114.782 305.367 114.05 305.742C113.324 306.116 112.715 306.706 112.229 307.516L97.8457 331.535C97.0576 332.983 96.9869 334.254 97.6287 335.348C97.8599 335.779 98.1808 336.225 98.5913 336.686C99.016 337.194 99.4643 337.597 99.9362 337.89L86.4921 329.698C83.1229 327.612 80.9758 325.449 80.0462 323.209C79.1165 320.969 79.4468 318.523 81.0276 315.885C82.3206 313.722 83.9581 312.312 85.9306 311.66C87.9031 311.008 89.9321 311.204 92.0179 312.245ZM91.697 332.369L100.55 317.588C98.2421 316.163 96.5999 315.223 95.609 314.777C93.2259 313.55 91.1261 313.367 89.3187 314.221C87.5397 315.099 86.0816 316.542 84.9538 318.566C83.1983 321.636 83.0662 324.254 84.5668 326.417C85.9117 328.437 88.2853 330.417 91.697 332.369ZM92.8202 301.07C91.1874 303.727 90.6778 306.135 91.2818 308.303C91.8905 310.47 93.5043 312.403 96.128 314.111C97.1992 314.897 98.7706 315.89 100.847 317.094L107.972 305.2C108.727 303.938 108.949 302.754 108.638 301.655C108.416 301.147 108.133 300.706 107.793 300.332C107.203 299.761 106.392 299.152 105.353 298.514C103.867 297.55 102.432 296.931 101.055 296.658C99.6767 296.384 98.2516 296.591 96.7651 297.276C95.2787 297.958 93.9668 299.224 92.8202 301.07Z" fill="#767070"/>
<path d="M50.9463 301.087C48.903 298.938 47.4732 296.636 46.6521 294.185C45.8357 291.734 45.6658 289.37 46.1424 287.091C46.973 282.501 49.1673 278.587 52.7206 275.336C56.6986 271.671 61.0682 269.839 65.8437 269.844C70.7136 269.849 75.0219 271.849 78.7781 275.844C80.8261 277.993 82.2654 280.353 83.1054 282.933C83.9453 285.509 84.1624 287.998 83.7566 290.406C82.893 295.216 80.7884 299.149 77.438 302.2C73.3845 306.09 68.9157 307.864 64.027 307.533C59.1052 307.231 54.7497 305.082 50.9463 301.087ZM56.4721 279.499C53.0368 283.077 50.918 287.019 50.1158 291.331C49.3136 295.547 50.1866 298.996 52.7395 301.672C55.3112 304.526 58.487 305.687 62.2668 305.154C66.0467 304.622 69.7132 302.406 73.2759 298.511C76.6169 294.833 78.6838 290.818 79.4907 286.449C80.3212 282.012 79.5945 278.415 77.3153 275.667C74.6539 272.314 71.4828 271.081 67.7927 271.964C64.0553 272.798 60.2802 275.312 56.4721 279.499Z" fill="#767070"/>
<path d="M46.3436 227.689L54.1344 242.059C53.8654 241.565 53.4361 241.066 52.8415 240.553C52.2988 240.136 51.6004 239.906 50.7463 239.858C49.9252 239.795 49.2174 240.39 48.6323 241.647C48.5804 241.839 48.2547 242.52 47.6649 243.695L45.0412 249.019C44.0644 250.932 43.0168 253.086 41.9031 255.474L53.9457 256.923C56.4184 257.182 58.0794 256.808 58.9336 255.786C59.7877 254.765 59.8113 253.196 59.0138 251.071L65.4267 262.899C63.072 260.16 59.58 258.463 54.9555 257.801L41.5775 256.079C36.5047 266.549 33.9094 271.964 33.7819 272.314C33.1166 273.931 32.7532 275.422 32.6824 276.785C32.6117 278.151 32.7815 279.202 33.1779 279.94L25.958 266.516C26.7036 267.743 27.5908 268.305 28.6148 268.189C29.6388 268.074 30.5873 267.216 31.4508 265.604L36.7878 254.784L27.3312 253.633C25.9014 253.47 24.6887 253.518 23.7024 253.767C22.7162 254.016 22.0178 254.592 21.6072 255.479C21.2014 256.371 21.2674 257.527 21.8054 258.957L16.1191 248.467C17.8698 250.822 21.0787 252.295 25.7504 252.889L37.1182 254.175C40.3034 247.81 42.4646 243.306 43.6019 240.663C45.1544 237.186 46.1689 234.467 46.6503 232.51C47.0419 230.615 46.9382 229.008 46.3436 227.689Z" fill="#767070"/>
<path d="M22.0092 213.804C27.0348 212.672 30.8807 210.236 33.5469 206.504C36.18 202.778 37.1993 198.61 36.6094 194.01C36.0857 190.365 34.8069 187.588 32.7777 185.679C30.8524 183.953 29.314 182.936 28.1626 182.643L27.3321 182.418C28.5071 182.634 29.7057 182.998 30.9232 183.516C31.9708 183.905 33.108 184.509 34.3349 185.334C37.0671 187.334 38.9264 190.039 39.9126 193.463C40.8328 196.662 41.0499 199.77 40.5685 202.787C40.0872 205.804 39.0161 208.447 37.3597 210.71C34.0424 215.238 29.635 218.005 24.1328 219.017C21.0419 219.554 18.1162 219.507 15.3557 218.869C12.5951 218.231 10.2404 217.108 8.2868 215.497C4.39845 212.351 1.86439 208.116 0.675233 202.787C0.10425 200.159 -0.10336 197.65 0.0476438 195.262C0.137302 192.418 0.594996 190.178 1.42552 188.543L1.7653 187.737L9.78737 186.6C5.88014 189.392 3.30367 192.859 2.07204 196.998C0.698852 201.78 1.41613 205.957 4.21914 209.531C5.98871 211.751 8.45194 213.228 11.6089 213.957C14.8177 214.72 18.2813 214.672 22.0092 213.804Z" fill="#767070"/>
<path d="M1.01815 150.712C1.48532 147.484 2.49047 144.698 4.03354 142.347C5.57661 139.997 7.47356 138.275 9.7339 137.177C14.1885 134.86 18.9829 134.179 24.1076 135.139C29.8694 136.194 34.3334 138.822 37.5045 143.019C40.7417 147.307 41.9072 152.424 41.0059 158.376C40.5387 161.604 39.4911 164.444 37.8584 166.894C36.2257 169.345 34.2485 171.192 31.9315 172.434C27.2693 174.88 22.5174 175.643 17.6899 174.727C11.6875 173.748 7.19991 171.005 4.22702 166.487C1.2211 161.969 0.149875 156.712 1.01815 150.712ZM23.06 141.211C17.7371 140.573 12.9664 141.331 8.76185 143.494C4.64227 145.594 2.2923 148.654 1.70716 152.678C0.989888 156.837 2.11768 160.4 5.08113 163.364C8.0493 166.333 12.3718 168.084 18.058 168.621C23.4045 169.11 28.2036 168.257 32.4506 166.06C36.7778 163.839 39.3543 160.808 40.1754 156.976C41.256 152.405 40.1943 148.793 36.9949 146.146C33.8049 143.422 29.1568 141.772 23.06 141.211Z" fill="#767070"/>
<path d="M40.4677 93.1933C45.9227 95.5579 49.7968 99.1263 52.0855 103.899C54.3789 108.671 54.3412 113.649 51.9723 118.834L50.5188 121.956L43.8653 136.269C44.172 135.611 44.4032 134.662 44.5636 133.42C44.6344 132.647 44.4409 131.894 43.9832 131.165C43.5302 130.441 42.8554 129.861 41.9682 129.434L14.6271 116.306C12.5791 115.323 10.9699 115.462 9.79965 116.724C8.92194 117.621 8.33212 118.398 8.02539 119.055L14.8724 104.325C16.2928 101.189 17.7509 98.6514 19.2563 96.7233C20.7569 94.7952 22.5029 93.2652 24.4848 92.1381C28.4722 89.8503 33.7999 90.2004 40.4677 93.1933ZM51.406 118.436C52.8924 114.609 52.4536 110.973 50.0895 107.524C47.7253 104.076 43.6906 101.045 37.9714 98.4308C31.7094 95.4667 26.698 94.8816 22.9371 96.685C19.6905 98.1862 17.1611 100.848 15.3349 104.685C14.3675 106.767 13.6739 108.345 13.2586 109.414L43.6718 124.019C45.3092 124.805 46.6069 124.959 47.5601 124.484C48.5133 124.009 49.4052 122.868 50.2451 121.064C50.9719 119.501 51.3588 118.623 51.406 118.436Z" fill="#767070"/>
<path d="M40.2464 70.7678L64.256 89.0705C64.9497 89.6029 65.6481 89.9338 66.3559 90.0633C67.059 90.1928 67.6677 90.188 68.1726 90.0489C68.6776 89.905 69.1636 89.6652 69.6308 89.3247C70.0933 88.9841 70.4283 88.7108 70.6265 88.5046C70.8247 88.2983 71.004 88.0873 71.1644 87.8714L61.9248 100.395C62.3543 99.8094 62.7318 98.9509 63.0574 97.8046C63.2556 97.0899 63.1801 96.3273 62.8403 95.5119C62.4958 94.7014 61.9155 93.9819 61.0991 93.3584L37.0942 75.0509C35.3151 73.6936 33.7296 73.4682 32.347 74.3843C31.3607 75.0222 30.6482 75.6313 30.2188 76.2116L39.463 63.6885C39.01 64.3024 38.6183 65.1849 38.2927 66.3265C37.8161 67.9284 38.4673 69.4104 40.2464 70.7678Z" fill="#767070"/>
<path d="M86.2821 52.9992L74.2301 39.09C72.234 36.7878 70.2285 35.8957 68.2182 36.4185C66.8875 36.7399 65.7975 37.2291 64.9575 37.8814L74.6029 29.248C73.8903 29.9915 73.291 31.0131 72.805 32.3129C72.0972 34.2794 72.7248 36.3993 74.6973 38.6775L96.7014 64.0738L96.6589 64.1121L95.8709 63.8963L56.2701 55.5509C54.996 55.359 54.5571 55.7811 54.9488 56.8123C55.1328 57.2583 55.4773 57.7715 55.9775 58.347L71.2855 76.0117C72.1349 76.9902 73.0268 77.7 73.9611 78.1413C74.8954 78.5825 75.7826 78.7744 76.6131 78.7216C77.4436 78.6689 78.1326 78.5633 78.68 78.4099C79.2226 78.2564 79.7323 78.0406 80.2042 77.772L80.7893 77.4027L70.9741 86.1895C71.3421 85.8633 71.7433 85.2206 72.1774 84.2709C73.4468 81.5562 72.9796 78.9279 70.7853 76.3907L55.515 58.7691C54.5665 57.6756 53.5898 56.7979 52.5894 56.136C51.589 55.4741 50.7112 55.0568 49.9609 54.8841C49.2106 54.7115 48.4886 54.6396 47.8091 54.6636C47.1249 54.6875 46.5963 54.7738 46.2283 54.9273C45.8555 55.0808 45.5865 55.2295 45.4166 55.383L45.209 55.4933L52.4336 49.0279L85.6167 56.0593C86.8531 56.3854 87.6317 56.3279 87.9573 55.8818C88.2074 55.5413 87.6553 54.582 86.2821 52.9992Z" fill="#767070"/>
<path d="M117.925 32.9157L129.623 27.3663C129.553 27.3998 129.435 27.4766 129.26 27.6013C129.085 27.726 128.854 27.9658 128.557 28.3159C128.26 28.6709 128.024 29.0546 127.844 29.4815C127.665 29.9036 127.58 30.4552 127.599 31.1219C127.613 31.7934 127.792 32.4937 128.127 33.2227L133.375 44.6429C132.587 43.6597 131.553 42.9018 130.27 42.3694C128.916 41.7843 127.925 41.6212 127.292 41.8754L127.207 42.1056C127.136 42.3119 127.066 42.5229 127.004 42.7436C126.938 42.9642 126.863 43.1801 126.773 43.3959C126.683 43.6069 126.617 43.7652 126.58 43.8659C126.273 44.7341 125.867 45.5782 125.372 46.408C124.013 48.5328 122.054 50.2068 119.487 51.4251C114.079 53.9911 109.063 54.2118 104.425 52.0966C99.8001 50.0149 96.242 46.2593 93.7504 40.8346C92.5377 38.1917 91.844 35.5777 91.6789 32.9876C91.5137 30.3976 91.7921 28.0426 92.5236 25.9177C93.255 23.7929 94.3167 21.8169 95.7088 19.9894C97.0962 18.1668 98.7005 16.5984 100.522 15.2937C102.339 13.9891 104.292 12.9435 106.392 12.1569C110.059 10.7995 113.754 10.3151 117.477 10.7084L121.134 18.9438C120.577 18.3634 119.803 17.7735 118.827 17.1835C117.661 16.464 116.236 15.7685 114.551 15.0827C112.645 14.2913 110.809 13.874 109.035 13.826C104.023 13.7061 100.239 15.3945 97.6813 18.8959C95.9495 21.1118 95.1803 23.9273 95.369 27.3279C95.5578 30.7334 96.7092 34.369 98.8185 38.2349C101.504 43.2712 104.835 46.7102 108.804 48.552C112.829 50.3267 116.613 50.4993 120.167 49.0652C122.677 48.0004 124.395 46.5279 125.325 44.6477C126.688 42.2639 126.481 39.1462 124.711 35.2851L124.593 35.0214C124.098 33.9422 123.31 33.1987 122.219 32.7814C121.134 32.3641 120.129 32.2874 119.209 32.556L117.925 32.9157Z" fill="#767070"/>
</svg>
