<?xml version="1.0" encoding="utf-8"?>
<!-- Generator: Adobe Illustrator 16.0.0, SVG Export Plug-In . SVG Version: 6.00 Build 0)  -->
<!DOCTYPE svg PUBLIC "-//W3C//DTD SVG 1.1//EN" "http://www.w3.org/Graphics/SVG/1.1/DTD/svg11.dtd">
<svg version="1.1" id="Layer_1" xmlns="http://www.w3.org/2000/svg" xmlns:xlink="http://www.w3.org/1999/xlink" x="0px" y="0px"
	 width="841.89px" height="595.28px" viewBox="0 0 841.89 595.28" enable-background="new 0 0 841.89 595.28" xml:space="preserve">
<g>
	<path d="M242.455,161.657l0.458-3.513c0.076-0.582-0.053-0.986-0.385-1.215c-0.217-0.154-0.426-0.251-0.627-0.292l2.476,0.323
		c-0.198-0.011-0.422,0.03-0.67,0.124c-0.374,0.144-0.598,0.502-0.673,1.077l-0.836,6.414l-0.011-0.001l-0.07-0.142l-3.868-6.838
		c-0.136-0.21-0.252-0.221-0.351-0.035c-0.041,0.083-0.07,0.198-0.089,0.343l-0.581,4.461c-0.032,0.248-0.021,0.467,0.036,0.659
		c0.056,0.192,0.142,0.346,0.256,0.46s0.218,0.202,0.31,0.262c0.092,0.06,0.187,0.108,0.286,0.143l0.128,0.039l-2.52-0.328
		c0.094,0.012,0.238-0.01,0.43-0.066c0.553-0.157,0.871-0.556,0.955-1.196l0.58-4.451c0.036-0.276,0.037-0.529,0.004-0.759
		c-0.033-0.229-0.085-0.41-0.157-0.542s-0.153-0.246-0.244-0.342c-0.091-0.097-0.171-0.163-0.241-0.198
		c-0.069-0.035-0.126-0.055-0.169-0.061l-0.042-0.017l1.854,0.242l3.235,5.735c0.112,0.222,0.22,0.328,0.325,0.32
		C242.335,162.259,242.402,162.057,242.455,161.657z"/>
	<path d="M249.188,158.426l-0.002,7.485c0.001,0.26,0.051,0.504,0.151,0.732c0.137,0.274,0.313,0.46,0.526,0.559l-2.747-1.071
		c0.047,0.019,0.161,0.031,0.339,0.038c0.116,0.006,0.214-0.015,0.295-0.062c0.255-0.168,0.369-0.392,0.344-0.669l0.051-2.282
		l-2.367-0.923l-1.35,1.493c-0.266,0.258-0.381,0.522-0.344,0.792c0.036,0.27,0.23,0.489,0.582,0.658l-2.029-0.792
		c0.519,0.163,1.076-0.084,1.67-0.742l4.885-5.321L249.188,158.426z M248.087,159.886c-0.096-0.037-0.34,0.167-0.734,0.611
		l-1.483,1.653l2.279,0.876l0.073-2.427C248.228,160.162,248.183,159.924,248.087,159.886z"/>
	<path d="M251.827,168.875l1.246-7.625c0.07-0.612-0.134-1.076-0.611-1.391l0.854,0.563l1.111,0.732l0.882,0.581l-0.113-0.048
		c-0.214-0.115-0.438-0.152-0.67-0.113c-0.233,0.04-0.391,0.243-0.474,0.61l-0.831,4.577c-0.061,0.373-0.031,0.599,0.092,0.68
		c0.08,0.052,0.175,0.054,0.287,0.004c0.089-0.029,0.324-0.172,0.706-0.431l3.098-2.161c0.395-0.293,0.599-0.582,0.612-0.868
		c0.013-0.286-0.161-0.556-0.52-0.811l2.002,1.32c-0.288-0.11-0.577-0.141-0.869-0.092s-0.635,0.207-1.03,0.474L251.827,168.875z"/>
	<path d="M259.193,174.244c0.298,0.064,0.586,0.1,0.863,0.109c0.277,0.008,0.481-0.003,0.613-0.034l0.188-0.039l-1.768,0.987
		l-4.117-4.463c0.084,0.092,0.236,0.191,0.455,0.299c0.285,0.136,0.576,0.067,0.873-0.207l4.342-4.005
		c0.296-0.273,0.38-0.556,0.252-0.846c-0.08-0.206-0.167-0.359-0.262-0.462l3.856,4.18l-1.033,1.477
		c0.041-0.118,0.076-0.339,0.104-0.665c0.035-0.352,0.029-0.656-0.018-0.912c-0.053-0.36-0.155-0.671-0.305-0.931
		c-0.13-0.249-0.419-0.616-0.866-1.101l-0.462-0.501l-2.595,2.395l0.417,0.453c0.533,0.556,1.105,0.706,1.718,0.451l0.103-0.05
		l-1.673,1.544c0.055-0.071,0.109-0.195,0.163-0.375c0.181-0.506,0.048-1.002-0.399-1.487l-0.418-0.453l-2.126,1.961
		c-0.151,0.14-0.26,0.275-0.328,0.407c-0.067,0.132-0.089,0.252-0.065,0.359c0.024,0.107,0.056,0.196,0.095,0.265
		c0.039,0.069,0.09,0.139,0.155,0.208l0.47,0.51C257.867,173.796,258.457,174.105,259.193,174.244z"/>
	<path d="M264.284,178.563l-0.963,1.699c-0.135,0.222-0.232,0.464-0.292,0.727c-0.06,0.263-0.081,0.47-0.062,0.62l0.036,0.195
		l-0.813-1.41c0.102-0.322,0.301-0.725,0.598-1.209l0.995-1.73c0.236-0.398,0.322-0.778,0.257-1.139
		c-0.035-0.149-0.075-0.261-0.119-0.338c-0.023-0.054-0.049-0.107-0.079-0.158l-0.181-0.314l-2.635,1.508
		c-0.165,0.095-0.271,0.228-0.316,0.398c-0.036,0.216,0.008,0.432,0.132,0.647l-1.391-2.41c0.062,0.108,0.178,0.235,0.348,0.383
		c0.238,0.192,0.525,0.192,0.862-0.002l5.183-2.991c0.343-0.198,0.483-0.453,0.422-0.765c-0.043-0.221-0.092-0.379-0.147-0.474
		c0.048,0.083,0.287,0.482,0.717,1.199c0.36,0.58,0.599,0.979,0.717,1.199c0.371,0.658,0.605,1.192,0.702,1.602
		s0.059,0.788-0.115,1.133c-0.147,0.347-0.427,0.632-0.841,0.854c-0.57,0.304-1.136,0.342-1.698,0.117
		c-0.38-0.145-0.679-0.37-0.898-0.676C264.777,177.524,264.636,177.97,264.284,178.563z M264.315,176.284
		c0.343,0.462,0.732,0.744,1.167,0.844c0.435,0.101,0.879,0.024,1.334-0.23c0.651-0.368,0.986-0.819,1.003-1.354
		c0.017-0.535-0.237-1.206-0.761-2.012l-3.291,1.912C263.961,175.781,264.144,176.061,264.315,176.284z"/>
	<path d="M271.947,187.693l-1.514,0.336c0.309-0.202,0.621-0.568,0.934-1.101c0.284-0.458,0.427-0.946,0.428-1.464
		c0-0.525-0.147-0.951-0.442-1.277c-0.174-0.181-0.391-0.292-0.651-0.333c-0.26-0.042-0.519-0.013-0.774,0.087
		c-0.714,0.273-1.068,0.998-1.064,2.174c0.003,1.064-0.155,1.844-0.477,2.341c-0.321,0.497-0.845,0.781-1.572,0.854
		c-0.699,0.098-1.271-0.069-1.715-0.498c-0.429-0.426-0.716-0.979-0.862-1.66c-0.242-1.163-0.171-2.161,0.213-2.993l2.039-0.46
		c-0.582,0.365-1.051,0.836-1.407,1.416c-0.36,0.595-0.545,1.201-0.555,1.818c0.006,0.621,0.143,1.121,0.412,1.498
		c0.272,0.399,0.673,0.553,1.202,0.462c0.456-0.075,0.819-0.326,1.087-0.75c0.262-0.424,0.403-1.144,0.425-2.161
		c0.02-0.889,0.185-1.532,0.498-1.929c0.327-0.4,0.773-0.646,1.338-0.737c0.614-0.109,1.148,0.039,1.603,0.444
		c0.47,0.409,0.781,0.984,0.932,1.724c0.076,0.351,0.109,0.709,0.102,1.075c-0.008,0.365-0.042,0.656-0.101,0.871L271.947,187.693z"
		/>
	<path d="M271.748,191.909l-5.824,0.268c-0.168,0.007-0.313,0.045-0.435,0.113c-0.122,0.068-0.212,0.144-0.271,0.227
		s-0.102,0.179-0.13,0.287c-0.028,0.107-0.045,0.189-0.049,0.244c-0.005,0.056-0.006,0.109-0.004,0.16l-0.137-2.989
		c0.006,0.139,0.055,0.313,0.145,0.521c0.057,0.13,0.161,0.233,0.312,0.311c0.15,0.078,0.325,0.112,0.522,0.103l5.824-0.268
		c0.432-0.02,0.696-0.183,0.792-0.488c0.071-0.216,0.103-0.394,0.097-0.533l0.137,2.989c-0.007-0.146-0.055-0.324-0.146-0.533
		C272.458,192.027,272.18,191.889,271.748,191.909z"/>
	<path d="M272.802,194.787l-0.834,6.325l-1.87,0.042c0.43-0.121,0.819-0.321,1.167-0.601c0.488-0.394,0.781-0.955,0.876-1.682
		l0.052-0.393l-6.543-0.863c-0.429-0.057-0.733,0.062-0.913,0.357c-0.11,0.214-0.174,0.395-0.193,0.54l0.403-3.053
		c-0.019,0.138-0.002,0.325,0.048,0.561c0.097,0.331,0.36,0.524,0.789,0.581l6.543,0.863l0.061-0.458
		c0.094-0.712-0.05-1.331-0.432-1.854c-0.205-0.301-0.472-0.573-0.802-0.816l-0.163-0.11L272.802,194.787z"/>
	<path d="M263.001,205.879c0.074,0.296,0.167,0.571,0.282,0.824c0.114,0.253,0.214,0.431,0.299,0.536l0.118,0.152l-1.664-1.155
		l2.202-5.659c-0.045,0.116-0.068,0.296-0.068,0.54c0.003,0.315,0.192,0.547,0.568,0.693l5.505,2.142
		c0.376,0.146,0.666,0.098,0.871-0.145c0.15-0.162,0.25-0.308,0.3-0.438l-2.062,5.3l-1.78-0.279
		c0.124-0.015,0.338-0.081,0.644-0.198c0.331-0.123,0.601-0.262,0.811-0.416c0.3-0.206,0.534-0.434,0.702-0.683
		c0.167-0.226,0.37-0.647,0.609-1.262l0.248-0.635l-3.291-1.28l-0.223,0.574c-0.266,0.723-0.149,1.303,0.35,1.741l0.09,0.07
		l-2.122-0.825c0.087,0.018,0.224,0.012,0.409-0.019c0.534-0.06,0.921-0.396,1.161-1.012l0.223-0.574l-2.696-1.049
		c-0.191-0.075-0.361-0.113-0.51-0.116c-0.148-0.003-0.266,0.03-0.352,0.1c-0.086,0.068-0.151,0.136-0.196,0.201
		c-0.045,0.065-0.084,0.142-0.119,0.231l-0.251,0.646C262.821,204.491,262.802,205.157,263.001,205.879z"/>
	<path d="M256.175,214.901c-0.17,0.172-0.263,0.376-0.279,0.611s0.051,0.462,0.201,0.681c-0.229-0.229-0.377-0.521-0.448-0.875
		c-0.075-0.338,0.011-0.658,0.256-0.96c0.207-0.248,0.425-0.419,0.655-0.515c0.23-0.096,0.526-0.122,0.888-0.078l1.052,0.117
		c-0.157-0.712-0.228-1.276-0.214-1.693c0.019-0.422,0.187-0.826,0.504-1.21c0.346-0.418,0.754-0.661,1.222-0.728
		c0.484-0.063,0.937,0.093,1.356,0.471c0.321,0.223,0.535,0.663,0.641,1.321c0.023,0.108,0.024,0.29,0.005,0.545l-0.044,0.518
		l-0.093,0.591l-0.088,0.551l0.212,0.025c0.66,0.07,1.093,0.143,1.301,0.218c0.272,0.101,0.515,0.246,0.73,0.435
		c0.348,0.314,0.515,0.685,0.499,1.109c-0.016,0.425-0.188,0.83-0.516,1.215c-0.25,0.297-0.573,0.493-0.967,0.586
		c-0.374,0.082-0.728-0.014-1.063-0.288c-0.507-0.435-0.702-1.029-0.586-1.785c0.002-0.047,0.022-0.17,0.061-0.371
		s0.062-0.332,0.067-0.394l-2.739-0.278l0.17,0.807c0.182,0.705,0.387,1.15,0.615,1.335c0.228,0.185,0.519,0.164,0.873-0.062
		L259,218.456c0.135-0.155,0.223-0.399,0.263-0.735c0.027-0.22,0.017-0.453-0.031-0.699c-0.055-0.272-0.134-0.604-0.238-0.998
		c-0.095-0.337-0.178-0.682-0.248-1.036l-0.058-0.285l-1.075-0.108l-0.58-0.039C256.66,214.57,256.374,214.686,256.175,214.901z
		 M259.171,211.646c-0.442,0.461-0.613,1.212-0.513,2.256l3.039,0.336l0.024-0.345c0.028-0.599-0.004-1.075-0.095-1.428
		c-0.091-0.353-0.283-0.657-0.575-0.913c-0.298-0.261-0.617-0.386-0.957-0.377C259.755,211.186,259.447,211.342,259.171,211.646z
		 M263.631,215.537c-0.229-0.172-0.471-0.291-0.725-0.357c-0.243-0.057-0.626-0.109-1.148-0.158l-0.125-0.007
		c-0.023,0.204-0.028,0.355-0.017,0.453c0.026,0.705,0.308,1.273,0.846,1.706c0.252,0.201,0.52,0.311,0.801,0.329
		c0.282,0.018,0.52-0.084,0.712-0.305c0.242-0.266,0.336-0.542,0.28-0.829C264.2,216.081,263.992,215.803,263.631,215.537z"/>
	<path d="M247.798,227.206l-2.489-5.125c-0.183-0.376-0.44-0.562-0.771-0.555c-0.227,0.004-0.409,0.04-0.547,0.107l2.721-1.322
		c-0.139,0.067-0.276,0.187-0.413,0.359c-0.203,0.253-0.213,0.568-0.031,0.944l2.114,4.354c0.189,0.389,0.325,0.567,0.407,0.536
		c0.053-0.025,0.074-0.191,0.065-0.496l0.001-0.123l-0.323-6.581l5.639,4.183c0.247,0.173,0.4,0.223,0.458,0.15
		c0.058-0.073,0.02-0.249-0.114-0.525l-1.922-3.982c-0.237-0.488-0.542-0.781-0.915-0.876c-0.13-0.035-0.281-0.043-0.452-0.025
		c-0.213,0.03-0.366,0.068-0.459,0.113l2.375-1.153c-0.105,0.051-0.227,0.146-0.362,0.286c-0.373,0.425-0.398,0.968-0.078,1.627
		l1.97,4.057c0.138,0.284,0.3,0.513,0.486,0.687s0.362,0.283,0.525,0.326c0.164,0.042,0.302,0.063,0.415,0.061
		s0.196-0.016,0.249-0.041l0.044-0.01l-1.86,0.904l-4.854-3.599c-0.238-0.17-0.417-0.272-0.54-0.306s-0.21,0-0.262,0.103
		c-0.052,0.103-0.071,0.293-0.058,0.573l0.257,5.867l-1.663,0.807c0.026-0.013,0.061-0.034,0.104-0.063
		c0.043-0.029,0.1-0.083,0.172-0.163c0.071-0.08,0.129-0.167,0.173-0.261c0.043-0.095,0.064-0.217,0.061-0.366
		C247.92,227.527,247.878,227.37,247.798,227.206z"/>
	<path d="M238.732,223.054c-0.217,0.215-0.405,0.436-0.563,0.663c-0.159,0.228-0.262,0.404-0.307,0.531l-0.07,0.179l0.142-2.02
		l5.989-1.002c-0.123,0.021-0.29,0.093-0.499,0.217c-0.27,0.164-0.372,0.445-0.305,0.843l0.975,5.826
		c0.066,0.398,0.257,0.623,0.57,0.674c0.216,0.046,0.392,0.057,0.53,0.034l-5.609,0.938l-0.67-1.672
		c0.076,0.099,0.243,0.249,0.5,0.452c0.275,0.222,0.532,0.383,0.772,0.484c0.331,0.153,0.646,0.238,0.946,0.255
		c0.28,0.027,0.745-0.013,1.396-0.122l0.673-0.113l-0.583-3.482l-0.607,0.102c-0.757,0.142-1.196,0.539-1.317,1.191l-0.015,0.114
		l-0.375-2.246c0.029,0.084,0.104,0.198,0.224,0.341c0.325,0.429,0.813,0.589,1.463,0.48l0.608-0.102l-0.478-2.853
		c-0.034-0.203-0.088-0.369-0.161-0.498c-0.074-0.129-0.162-0.212-0.265-0.251s-0.194-0.061-0.273-0.066
		c-0.079-0.005-0.165,0-0.259,0.016l-0.684,0.114C239.833,222.189,239.252,222.513,238.732,223.054z"/>
	<path d="M231.849,225.346l-2.5-0.198c0.015,0.001,0.042,0,0.083-0.005c0.041-0.004,0.103-0.021,0.186-0.051
		c0.083-0.03,0.16-0.072,0.23-0.125c0.071-0.054,0.136-0.137,0.196-0.25c0.061-0.113,0.097-0.246,0.109-0.399l0.19-2.401
		c0.041,0.238,0.144,0.463,0.311,0.675c0.173,0.227,0.325,0.35,0.456,0.367l0.036-0.03c0.032-0.027,0.063-0.056,0.095-0.086
		c0.032-0.031,0.065-0.06,0.101-0.086c0.035-0.027,0.061-0.047,0.076-0.06c0.134-0.115,0.282-0.217,0.444-0.307
		c0.43-0.223,0.918-0.313,1.467-0.27c1.155,0.092,2.025,0.536,2.609,1.333c0.585,0.79,0.832,1.754,0.742,2.895
		c-0.044,0.556-0.174,1.057-0.39,1.503c-0.215,0.447-0.485,0.812-0.81,1.095c-0.324,0.283-0.689,0.51-1.097,0.68
		c-0.407,0.17-0.825,0.277-1.255,0.32c-0.43,0.043-0.859,0.029-1.288-0.042c-0.748-0.125-1.417-0.399-2.009-0.821l0.159-1.72
		c0.04,0.15,0.114,0.322,0.224,0.514c0.129,0.231,0.304,0.484,0.525,0.759c0.248,0.314,0.519,0.56,0.813,0.738
		c0.835,0.5,1.635,0.582,2.397,0.245c0.501-0.203,0.897-0.596,1.186-1.18s0.438-1.299,0.446-2.144
		c0.021-1.095-0.218-1.985-0.715-2.672c-0.512-0.681-1.136-1.072-1.871-1.175c-0.524-0.063-0.954,0.017-1.288,0.24
		c-0.455,0.265-0.715,0.804-0.779,1.615l-0.004,0.055c-0.018,0.227,0.045,0.427,0.19,0.6s0.307,0.282,0.487,0.326L231.849,225.346z"
		/>
	<path d="M224.045,228.413l-0.373-7.475c-0.014-0.26-0.077-0.501-0.188-0.724c-0.15-0.267-0.335-0.444-0.553-0.532l2.797,0.932
		c-0.049-0.016-0.163-0.023-0.341-0.021c-0.116,0-0.213,0.026-0.292,0.077c-0.246,0.181-0.349,0.409-0.31,0.686l0.063,2.282
		l2.411,0.803l1.273-1.559c0.253-0.271,0.354-0.541,0.304-0.809c-0.05-0.268-0.254-0.477-0.614-0.628l2.066,0.688
		c-0.526-0.137-1.07,0.138-1.631,0.825l-4.612,5.559V228.413z M225.071,226.899c0.098,0.033,0.332-0.183,0.703-0.647l1.398-1.726
		l-2.32-0.761l0.049,2.428C224.917,226.632,224.974,226.867,225.071,226.899z"/>
	<path d="M217.708,221.069c-0.207-0.126-0.391-0.271-0.554-0.434c-0.163-0.164-0.307-0.36-0.432-0.591s-0.174-0.503-0.147-0.817
		c0.028-0.313,0.145-0.64,0.351-0.978c0.404-0.664,0.979-0.98,1.723-0.947c0.178,0.005,0.386,0.05,0.625,0.136
		c0.379,0.154,0.744,0.337,1.095,0.55l3.02,1.851c-0.138-0.083-0.325-0.15-0.561-0.2c-0.146-0.029-0.296-0.004-0.451,0.074
		c-0.154,0.078-0.283,0.201-0.386,0.37l-3.048,5.008c-0.167,0.302-0.182,0.567-0.046,0.795c0.049,0.09,0.117,0.183,0.204,0.279
		c0.09,0.106,0.185,0.19,0.285,0.251l-2.849-1.708c-0.714-0.435-1.169-0.886-1.366-1.353c-0.197-0.467-0.127-0.977,0.208-1.527
		c0.274-0.451,0.621-0.745,1.039-0.881S217.266,220.852,217.708,221.069z M217.64,225.265l1.876-3.082
		c-0.489-0.297-0.837-0.493-1.047-0.586c-0.505-0.256-0.95-0.294-1.333-0.116c-0.377,0.183-0.686,0.484-0.925,0.906
		c-0.372,0.64-0.4,1.186-0.082,1.637C216.414,224.445,216.917,224.858,217.64,225.265z M217.878,218.739
		c-0.346,0.554-0.454,1.056-0.326,1.508c0.129,0.452,0.471,0.855,1.027,1.211c0.227,0.164,0.56,0.371,1,0.622l1.51-2.48
		c0.16-0.263,0.207-0.51,0.141-0.739c-0.047-0.106-0.107-0.198-0.179-0.276c-0.125-0.119-0.297-0.246-0.517-0.379
		c-0.315-0.201-0.619-0.33-0.911-0.387s-0.594-0.014-0.909,0.129C218.399,218.09,218.121,218.354,217.878,218.739z"/>
	<path d="M209.004,218.742c-0.433-0.448-0.736-0.928-0.91-1.439c-0.173-0.511-0.209-1.004-0.108-1.479
		c0.176-0.957,0.641-1.773,1.394-2.451c0.843-0.764,1.769-1.146,2.781-1.145c1.032,0.001,1.945,0.418,2.741,1.251
		c0.434,0.448,0.739,0.94,0.917,1.478c0.178,0.537,0.224,1.056,0.138,1.558c-0.183,1.003-0.629,1.823-1.339,2.459
		c-0.859,0.811-1.806,1.181-2.842,1.112C210.733,220.023,209.81,219.575,209.004,218.742z M210.175,214.241
		c-0.728,0.746-1.177,1.568-1.347,2.467c-0.17,0.879,0.015,1.598,0.556,2.156c0.545,0.595,1.218,0.837,2.019,0.726
		c0.801-0.111,1.578-0.573,2.333-1.385c0.708-0.767,1.146-1.604,1.317-2.515c0.176-0.925,0.022-1.675-0.461-2.248
		c-0.564-0.699-1.236-0.956-2.018-0.772C211.782,212.844,210.982,213.368,210.175,214.241z"/>
	<path d="M208.029,203.439l1.651,2.996c-0.057-0.103-0.148-0.207-0.274-0.314c-0.115-0.087-0.263-0.135-0.444-0.145
		c-0.174-0.013-0.324,0.111-0.448,0.373c-0.011,0.04-0.08,0.182-0.205,0.427l-0.556,1.11c-0.207,0.399-0.429,0.848-0.665,1.346
		l2.552,0.302c0.524,0.054,0.876-0.024,1.057-0.237s0.186-0.54,0.017-0.983l1.359,2.466c-0.499-0.571-1.239-0.925-2.219-1.063
		l-2.835-0.359c-1.075,2.183-1.625,3.312-1.652,3.385c-0.141,0.337-0.218,0.648-0.233,0.932c-0.015,0.285,0.021,0.504,0.105,0.658
		l-1.53-2.799c0.158,0.256,0.346,0.373,0.563,0.349s0.418-0.203,0.601-0.539l1.131-2.256l-2.004-0.24
		c-0.303-0.034-0.56-0.024-0.769,0.028s-0.357,0.172-0.444,0.357c-0.086,0.186-0.072,0.427,0.042,0.725l-1.205-2.187
		c0.371,0.491,1.051,0.798,2.041,0.922l2.409,0.268c0.675-1.327,1.133-2.266,1.374-2.817c0.329-0.725,0.544-1.292,0.646-1.7
		C208.177,204.049,208.155,203.714,208.029,203.439z"/>
	<path d="M202.872,200.544c1.065-0.236,1.88-0.744,2.445-1.522c0.558-0.777,0.774-1.646,0.649-2.605
		c-0.111-0.76-0.382-1.339-0.812-1.737c-0.408-0.36-0.734-0.572-0.978-0.633L204,194c0.249,0.045,0.503,0.121,0.761,0.229
		c0.222,0.081,0.463,0.207,0.723,0.379c0.579,0.417,0.973,0.981,1.182,1.695c0.195,0.667,0.241,1.315,0.139,1.944
		s-0.329,1.18-0.68,1.652c-0.703,0.944-1.637,1.521-2.803,1.732c-0.655,0.112-1.275,0.102-1.86-0.031
		c-0.585-0.133-1.084-0.367-1.498-0.703c-0.824-0.656-1.361-1.539-1.613-2.65c-0.121-0.548-0.165-1.071-0.133-1.569
		c0.019-0.593,0.116-1.06,0.292-1.401l0.072-0.168l1.7-0.237c-0.828,0.582-1.374,1.305-1.635,2.168
		c-0.291,0.997-0.139,1.868,0.455,2.613c0.375,0.463,0.897,0.771,1.566,0.923C201.348,200.735,202.082,200.725,202.872,200.544z"/>
	<path d="M198.424,187.389c0.099-0.673,0.312-1.254,0.639-1.744s0.729-0.849,1.208-1.078c0.944-0.483,1.96-0.625,3.046-0.425
		c1.221,0.22,2.167,0.768,2.839,1.643c0.686,0.894,0.933,1.961,0.742,3.202c-0.099,0.673-0.321,1.265-0.667,1.776
		s-0.765,0.896-1.256,1.155c-0.988,0.51-1.995,0.669-3.018,0.478c-1.272-0.204-2.223-0.776-2.853-1.718
		C198.467,189.736,198.24,188.64,198.424,187.389z M203.095,185.408c-1.128-0.133-2.139,0.025-3.03,0.476
		c-0.873,0.438-1.371,1.076-1.495,1.915c-0.152,0.867,0.087,1.61,0.715,2.228c0.629,0.619,1.545,0.984,2.75,1.096
		c1.133,0.102,2.15-0.076,3.05-0.534c0.917-0.463,1.463-1.095,1.637-1.894c0.229-0.953,0.004-1.706-0.674-2.258
		C205.372,185.869,204.387,185.525,203.095,185.408z"/>
	<path d="M206.785,175.397c1.156,0.493,1.977,1.237,2.462,2.232c0.486,0.995,0.478,2.033-0.024,3.114l-0.308,0.651l-1.41,2.984
		c0.065-0.137,0.114-0.335,0.148-0.594c0.015-0.161-0.026-0.318-0.123-0.47c-0.096-0.151-0.239-0.272-0.427-0.361l-5.794-2.737
		c-0.434-0.205-0.775-0.176-1.023,0.087c-0.186,0.187-0.311,0.349-0.376,0.486l1.451-3.071c0.301-0.654,0.61-1.183,0.929-1.585
		c0.318-0.402,0.688-0.721,1.108-0.956C204.243,174.7,205.372,174.773,206.785,175.397z M209.103,180.66
		c0.315-0.798,0.222-1.556-0.279-2.275c-0.501-0.719-1.356-1.351-2.568-1.896c-1.327-0.618-2.389-0.74-3.186-0.364
		c-0.688,0.313-1.224,0.868-1.611,1.668c-0.205,0.434-0.352,0.763-0.44,0.986l6.445,3.045c0.347,0.164,0.622,0.196,0.824,0.097
		c0.202-0.099,0.391-0.337,0.569-0.713C209.011,180.882,209.093,180.699,209.103,180.66z"/>
	<path d="M206.737,170.721l5.088,3.816c0.147,0.111,0.295,0.18,0.445,0.207c0.149,0.027,0.278,0.026,0.385-0.003
		c0.107-0.03,0.21-0.08,0.309-0.151c0.098-0.071,0.169-0.128,0.211-0.171c0.042-0.043,0.08-0.087,0.114-0.132l-1.958,2.611
		c0.091-0.122,0.171-0.301,0.24-0.54c0.042-0.149,0.026-0.308-0.046-0.478c-0.073-0.169-0.196-0.319-0.369-0.449l-5.087-3.817
		c-0.377-0.283-0.713-0.33-1.006-0.139c-0.209,0.133-0.36,0.26-0.451,0.381l1.959-2.611c-0.096,0.128-0.179,0.312-0.248,0.55
		C206.222,170.129,206.36,170.438,206.737,170.721z"/>
	<path d="M216.492,167.016l-2.554-2.9c-0.423-0.48-0.848-0.666-1.274-0.557c-0.282,0.067-0.513,0.169-0.691,0.305l2.044-1.8
		c-0.151,0.155-0.278,0.368-0.381,0.639c-0.15,0.41-0.017,0.852,0.401,1.327l4.663,5.295l-0.009,0.008l-0.167-0.045l-8.392-1.74
		c-0.27-0.04-0.363,0.048-0.28,0.263c0.039,0.093,0.112,0.2,0.218,0.32l3.244,3.683c0.18,0.204,0.369,0.352,0.567,0.444
		c0.198,0.092,0.386,0.132,0.562,0.121c0.176-0.011,0.322-0.033,0.438-0.065c0.115-0.032,0.223-0.077,0.323-0.133l0.124-0.077
		l-2.08,1.832c0.078-0.068,0.163-0.202,0.255-0.4c0.269-0.566,0.17-1.114-0.295-1.643l-3.236-3.674
		c-0.201-0.228-0.408-0.411-0.62-0.549c-0.212-0.138-0.398-0.225-0.557-0.261s-0.312-0.051-0.456-0.046
		c-0.145,0.005-0.257,0.023-0.335,0.055c-0.079,0.032-0.136,0.063-0.172,0.095l-0.044,0.023l1.531-1.348l7.032,1.466
		c0.262,0.068,0.427,0.056,0.496-0.037C216.9,167.546,216.783,167.346,216.492,167.016z"/>
	<path d="M223.198,162.829l2.479-1.157c-0.015,0.007-0.04,0.023-0.077,0.049s-0.086,0.076-0.149,0.149
		c-0.063,0.074-0.113,0.154-0.151,0.243c-0.038,0.088-0.056,0.203-0.052,0.342c0.003,0.14,0.041,0.286,0.112,0.438l1.112,2.381
		c-0.167-0.205-0.386-0.363-0.658-0.474c-0.287-0.122-0.497-0.156-0.631-0.103l-0.018,0.048c-0.015,0.043-0.03,0.087-0.043,0.133
		c-0.014,0.046-0.03,0.091-0.049,0.136c-0.019,0.044-0.033,0.077-0.041,0.098c-0.065,0.181-0.151,0.357-0.256,0.53
		c-0.288,0.443-0.703,0.792-1.247,1.046c-1.146,0.535-2.209,0.581-3.192,0.14c-0.98-0.434-1.734-1.217-2.262-2.348
		c-0.257-0.551-0.404-1.096-0.439-1.636s0.024-1.031,0.179-1.474c0.155-0.443,0.38-0.855,0.675-1.236
		c0.294-0.38,0.634-0.707,1.02-0.979c0.385-0.272,0.799-0.49,1.244-0.654c0.777-0.283,1.56-0.384,2.349-0.302l0.775,1.717
		c-0.118-0.121-0.282-0.244-0.489-0.367c-0.247-0.15-0.549-0.295-0.906-0.438c-0.404-0.165-0.793-0.252-1.169-0.262
		c-1.062-0.025-1.864,0.327-2.406,1.057c-0.367,0.462-0.53,1.049-0.49,1.758c0.04,0.71,0.284,1.468,0.731,2.274
		c0.569,1.05,1.275,1.767,2.116,2.151c0.853,0.37,1.655,0.406,2.408,0.107c0.532-0.222,0.896-0.529,1.093-0.921
		c0.289-0.497,0.245-1.147-0.13-1.952l-0.025-0.055c-0.105-0.225-0.272-0.38-0.503-0.467c-0.23-0.087-0.443-0.103-0.638-0.047
		L223.198,162.829z"/>
</g>
</svg>
