<svg width="348" height="349" viewBox="0 0 348 349" fill="none" xmlns="http://www.w3.org/2000/svg">
<path d="M180.435 0L211.036 3.75522L211.32 12.7872C210.718 10.7142 209.732 8.84376 208.367 7.17711C206.441 4.83384 203.719 3.44625 200.202 3.01547L198.303 2.78292L194.417 34.4382C194.163 36.5146 194.75 37.9785 196.181 38.8324C197.223 39.3539 198.097 39.6563 198.8 39.7427L184.027 37.9298C184.696 38.0118 185.599 37.9265 186.737 37.6729C188.329 37.1912 189.255 35.9121 189.51 33.8368L193.396 2.18049L191.18 1.90806C187.733 1.48503 184.751 2.20817 182.238 4.07748C180.794 5.07857 179.491 6.3831 178.331 7.98884L177.805 8.78064L180.435 0Z" fill="#6E7266"/>
<path d="M234.361 47.0552C235.79 46.6975 237.116 46.2412 238.338 45.6886C239.56 45.1349 240.421 44.6521 240.923 44.2379L241.657 43.6665L236.09 51.714L208.729 41.1183C209.29 41.3354 210.159 41.4439 211.338 41.445C212.864 41.4284 213.98 40.5115 214.683 38.6931L224.992 12.0743C225.695 10.2571 225.459 8.85511 224.283 7.8673C223.498 7.14638 222.791 6.66355 222.165 6.41992L247.792 16.3434L246.456 24.9469C246.384 24.3478 246.064 23.3123 245.494 21.8384C244.896 20.2393 244.225 18.9336 243.477 17.9215C242.48 16.4719 241.377 15.3412 240.172 14.5328C239.077 13.7288 237.044 12.751 234.069 11.5993L230.996 10.4088L224.835 26.3201L227.611 27.3953C231.106 28.6733 233.91 28.1063 236.023 25.6932L236.364 25.2547L232.391 35.516C232.477 35.094 232.447 34.4362 232.3 33.5426C232.007 30.959 230.375 29.0919 227.401 27.9402L224.624 26.866L219.576 39.9024C219.218 40.8282 219.032 41.6499 219.021 42.3664C219.007 43.084 219.169 43.6499 219.504 44.064C219.837 44.4782 220.161 44.7949 220.477 45.0109C220.792 45.2279 221.164 45.4195 221.593 45.5867L224.716 46.796C227.653 47.9355 230.87 48.0219 234.361 47.0552Z" fill="#6E7266"/>
<path d="M273.353 30.0356L265.074 65.2434C264.79 66.4671 264.759 67.6719 264.977 68.8546C265.32 70.2943 265.938 71.3651 266.833 72.0661L255.095 63.9942C255.3 64.1349 255.817 64.3187 256.65 64.5479C257.188 64.7041 257.674 64.7151 258.109 64.5834C259.492 64.074 260.276 63.1504 260.463 61.816L263.226 51.1372L253.109 44.1794L245.111 49.712C243.574 50.6333 242.742 51.7496 242.615 53.0597C242.488 54.3709 243.158 55.6167 244.625 56.7972L235.953 50.8338C238.214 52.1738 241.106 51.6256 244.632 49.1893L273.49 29.5527L273.353 30.0356ZM266.562 35.6878C266.152 35.4065 264.777 36.0953 262.432 37.752L253.631 43.8915L263.385 50.5348L266.408 39.1961C266.918 37.1374 266.971 35.9691 266.562 35.6878Z" fill="#6E7266"/>
<path d="M318.022 83.1537L296.653 100.517C295.085 101.79 294.497 103.203 294.891 104.756C295.159 105.816 295.528 106.635 295.997 107.213L286.779 95.8678C287.249 96.4448 287.963 96.9597 288.925 97.4126C290.341 98.0881 291.833 97.7891 293.401 96.5156L311.554 81.7672C313.176 80.4494 313.867 79.6133 313.627 79.2611C313.448 79.0407 312.646 79.1227 311.222 79.5036L310.641 79.6321L280.033 88.4061L293.494 57.2636C294.037 55.9081 294.105 55.1351 293.697 54.9413C293.29 54.7475 292.508 55.1207 291.353 56.0587L274.735 69.4916C272.698 71.146 271.661 72.9024 271.62 74.7617C271.602 75.414 271.731 76.1327 272.002 76.9167C272.381 77.8868 272.725 78.5657 273.039 78.951L264.994 69.0497C265.351 69.4893 265.933 69.9533 266.739 70.4395C269.151 71.7219 271.733 71.2457 274.482 69.0109L291.397 55.268C292.579 54.3079 293.478 53.2913 294.092 52.2226C294.707 51.1529 295.025 50.2083 295.046 49.3921C295.068 48.5759 295.012 47.9026 294.878 47.3722C294.744 46.8417 294.586 46.4663 294.408 46.2471L294.316 46.0488L300.616 53.804L289.039 80.6066C288.501 81.9111 288.219 82.8712 288.193 83.4859C288.168 84.1005 288.425 84.4737 288.965 84.6044C289.506 84.7361 290.425 84.6176 291.723 84.2478L319.043 76.569L324.675 83.5003C324.586 83.3895 324.449 83.25 324.265 83.0795C324.081 82.91 323.762 82.7007 323.31 82.4516C322.857 82.2035 322.383 82.0285 321.891 81.9266C321.398 81.8248 320.802 81.8635 320.103 82.044C319.402 82.2256 318.71 82.5955 318.022 83.1537Z" fill="#6E7266"/>
<path d="M339.967 135.342C338.236 137.291 335.993 138.434 333.241 138.771C330.476 139.187 328.191 138.766 326.389 137.508C323.017 135.143 320.89 130.869 320.004 124.686C322.18 132.991 326.692 136.096 333.538 134.003C336.965 132.972 339.135 131.361 340.048 129.165C340.959 126.969 340.852 124.174 339.72 120.777C339.531 120.168 339.19 119.197 338.702 117.865L307.894 127.454C305.865 128.086 304.811 129.174 304.735 130.72C304.667 131.817 304.735 132.686 304.935 133.33L300.639 119.525C300.839 120.167 301.277 120.921 301.955 121.787C302.894 123.016 304.378 123.315 306.408 122.683L333.816 114.153C335.507 113.626 336.385 112.63 336.448 111.162C336.48 110.075 336.408 109.245 336.23 108.67C336.313 108.94 336.968 110.926 338.194 114.627C339.441 118.395 340.102 120.397 340.175 120.634C341.398 124.447 342.017 127.446 342.03 129.632C342.044 131.818 341.356 133.722 339.967 135.342Z" fill="#6E7266"/>
<path d="M324.566 169.558L316.869 175.015C315.826 175.708 314.904 176.57 314.102 177.599C313.3 178.627 312.786 179.489 312.561 180.184L312.32 181.111L311.651 173.272C312.759 172.075 314.456 170.721 316.747 169.21L324.652 163.682C326.5 162.422 327.654 160.937 328.114 159.226C328.266 158.501 328.322 157.928 328.287 157.504C328.298 157.218 328.291 156.933 328.267 156.651L328.117 154.903L313.495 156.096C312.577 156.175 311.844 156.539 311.295 157.19C310.693 158.06 310.443 159.094 310.546 160.295L309.404 146.896C309.455 147.496 309.701 148.292 310.141 149.287C310.789 150.619 312.047 151.205 313.918 151.045L342.731 148.59C344.639 148.427 345.776 147.601 346.148 146.112C346.413 145.057 346.524 144.266 346.479 143.736C346.518 144.195 346.744 146.435 347.158 150.454C347.543 153.728 347.769 155.968 347.837 157.171C348.11 160.81 348.041 163.626 347.623 165.619C347.207 167.61 346.264 169.183 344.798 170.341C343.443 171.559 341.633 172.229 339.369 172.351C336.252 172.51 333.695 171.518 331.699 169.376C330.333 167.963 329.486 166.364 329.156 164.578C328.853 166.027 327.322 167.687 324.566 169.558ZM329.378 159.653C329.93 162.38 331.054 164.408 332.751 165.741C334.445 167.072 336.549 167.649 339.06 167.47C342.664 167.198 345.052 165.91 346.226 163.605C347.398 161.3 347.664 157.845 347.023 153.241L328.702 154.856C328.86 156.726 329.085 158.325 329.378 159.653Z" fill="#6E7266"/>
<path d="M346.216 205.149C345.704 208.117 344.699 210.668 343.197 212.802C341.698 214.934 339.875 216.48 337.731 217.442C333.496 219.48 328.985 219.997 324.194 218.992C318.812 217.883 314.68 215.356 311.801 211.407C308.864 207.376 307.886 202.623 308.865 197.147C309.378 194.178 310.427 191.581 312.016 189.357C313.604 187.131 315.5 185.471 317.702 184.377C322.135 182.228 326.607 181.631 331.116 182.589C336.727 183.628 340.875 186.267 343.56 190.505C346.281 194.751 347.166 199.631 346.216 205.149ZM325.319 213.414C330.301 214.129 334.792 213.536 338.786 211.637C342.7 209.793 344.977 207.021 345.614 203.32C346.381 199.496 345.405 196.182 342.689 193.376C339.971 190.57 335.953 188.853 330.63 188.224C325.624 187.648 321.102 188.324 317.066 190.255C312.954 192.207 310.468 194.942 309.611 198.463C308.491 202.657 309.405 206.014 312.351 208.537C315.284 211.127 319.608 212.754 325.319 213.414Z" fill="#6E7266"/>
<path d="M307.809 232.368L330.432 241.922C332.195 242.666 333.544 242.523 334.478 241.494C335.195 240.796 335.679 240.155 335.927 239.567L330.633 252.103C330.868 251.548 330.998 250.738 331.025 249.672C331.079 248.27 330.24 247.205 328.511 246.475L306.181 237.045C302.916 235.667 301.08 233.774 300.671 231.372C300.307 229.41 300.558 227.401 301.429 225.345C301.856 224.333 302.417 223.368 303.113 222.45C303.809 221.532 304.795 220.766 306.074 220.152C307.352 219.538 308.685 219.503 310.069 220.05C310.754 220.34 311.26 220.803 311.588 221.442C311.915 222.079 311.94 222.725 311.663 223.378C311.278 224.292 310.651 224.797 309.784 224.892C308.917 224.987 308.026 224.707 307.11 224.051C306.064 223.339 305.035 223.135 304.022 223.439C303.009 223.741 302.275 224.432 301.821 225.51C301.228 226.913 301.392 228.117 302.314 229.123C303.234 230.127 305.067 231.21 307.809 232.368Z" fill="#6E7266"/>
<path d="M285.103 261.724C285.126 263.198 285.269 264.593 285.531 265.908C285.792 267.223 286.065 268.171 286.356 268.755L286.744 269.6L280.172 262.349L296.708 238.109C296.368 238.607 296.064 239.429 295.797 240.577C295.466 242.067 296.106 243.362 297.717 244.46L321.297 260.547C322.906 261.644 324.325 261.733 325.555 260.812C326.436 260.212 327.066 259.634 327.446 259.078L311.96 281.781L303.885 278.525C304.484 278.591 305.567 278.513 307.132 278.295C308.825 278.077 310.248 277.718 311.404 277.22C313.042 276.577 314.393 275.762 315.455 274.77C316.486 273.886 317.9 272.128 319.697 269.493L321.556 266.77L307.46 257.155L305.782 259.614C303.743 262.728 303.659 265.587 305.528 268.192L305.877 268.623L296.787 262.423C297.179 262.603 297.826 262.723 298.73 262.782C301.311 263.084 303.502 261.919 305.299 259.284L306.977 256.825L295.428 248.946C294.608 248.387 293.849 248.021 293.154 247.847C292.457 247.672 291.871 247.7 291.391 247.931C290.911 248.161 290.531 248.406 290.248 248.663C289.965 248.92 289.694 249.24 289.435 249.62L287.548 252.386C285.77 254.992 284.955 258.105 285.103 261.724Z" fill="#6E7266"/>
<path d="M286.414 283.822C282.953 280.449 279.095 278.661 274.84 278.454C270.608 278.272 266.864 279.578 263.607 282.368C261.06 284.624 259.572 287.032 259.141 289.591C258.796 291.98 258.804 293.7 259.168 294.751L259.422 295.52C258.984 294.489 258.649 293.365 258.421 292.146C258.182 291.126 258.067 289.926 258.075 288.548C258.215 285.392 259.353 282.562 261.488 280.055C263.488 277.716 265.777 275.971 268.356 274.821C270.936 273.672 273.526 273.176 276.128 273.333C281.33 273.646 285.738 275.708 289.348 279.517C291.352 281.67 292.818 283.994 293.748 286.485C294.676 288.976 295.019 291.395 294.777 293.739C294.346 298.383 292.377 302.519 288.868 306.148C287.131 307.924 285.298 309.357 283.374 310.448C281.134 311.818 279.165 312.591 277.474 312.765L276.675 312.904L271.672 307.18C275.84 308.838 279.841 309.105 283.675 307.981C288.073 306.639 290.934 303.963 292.255 299.952C293.06 297.439 292.932 294.758 291.875 291.908C290.82 289.008 289 286.313 286.414 283.822Z" fill="#6E7266"/>
<path d="M267.509 322.413L240.064 336.458L234.766 329.138C236.428 330.516 238.291 331.514 240.357 332.129C243.266 332.988 246.297 332.613 249.452 330.998L251.155 330.127L236.627 301.735C235.675 299.872 234.367 298.99 232.703 299.084C231.547 299.238 230.655 299.476 230.023 299.799L243.274 293.02C242.674 293.325 241.973 293.902 241.174 294.75C240.125 296.043 240.075 297.621 241.028 299.481L255.556 327.874L257.544 326.856C260.636 325.274 262.699 323.004 263.733 320.048C264.367 318.41 264.715 316.6 264.775 314.618L264.766 313.668L267.509 322.413Z" fill="#6E7266"/>
<path d="M175.653 314.313C174.482 314.369 173.487 314.791 172.664 315.577C171.841 316.363 171.338 317.389 171.157 318.657C171.093 317.095 171.513 315.57 172.42 314.079C173.26 312.632 174.61 311.772 176.468 311.497C178.014 311.291 179.353 311.394 180.486 311.803C181.617 312.214 182.757 313.087 183.901 314.424L187.265 318.278C189.035 315.231 190.624 312.991 192.036 311.552C193.482 310.109 195.398 309.222 197.786 308.889C200.386 308.533 202.628 308.999 204.516 310.29C206.448 311.646 207.544 313.682 207.808 316.4C208.224 318.243 207.546 320.51 205.772 323.201C205.502 323.658 204.915 324.312 204.009 325.16L202.163 326.859L199.901 328.658L197.786 330.335L198.459 331.116C200.577 333.522 201.884 335.196 202.379 336.14C203.016 337.389 203.409 338.701 203.56 340.074C203.771 342.332 203.155 344.192 201.711 345.651C200.267 347.111 198.331 347.991 195.905 348.295C194.042 348.534 192.256 348.178 190.547 347.225C188.948 346.295 187.999 344.795 187.7 342.724C187.314 339.522 188.562 336.766 191.446 334.453C191.607 334.292 192.082 333.919 192.873 333.334C193.665 332.747 194.175 332.352 194.401 332.15L185.557 322.211L183.528 325.643C181.872 328.748 181.148 331.001 181.355 332.405C181.563 333.808 182.667 334.685 184.665 335.036L174.097 336.195C175.085 336.087 176.197 335.502 177.435 334.439C178.249 333.743 178.975 332.88 179.61 331.848C180.305 330.701 181.109 329.258 182.023 327.519C182.785 326.009 183.617 324.51 184.524 323.019L185.247 321.817L181.771 317.92L179.837 315.886C178.46 314.717 177.067 314.192 175.653 314.313ZM196.953 312.51C193.873 312.706 190.808 314.824 187.757 318.866L197.48 329.992L198.691 328.843C200.748 326.799 202.191 325 203.018 323.449C203.846 321.896 204.158 320.187 203.954 318.319C203.746 316.417 203.019 314.927 201.779 313.852C200.537 312.776 198.929 312.328 196.953 312.51ZM200.124 340.932C199.869 339.569 199.397 338.356 198.709 337.29C198.03 336.296 196.839 334.857 195.134 332.976L194.711 332.541C193.964 333.193 193.45 333.714 193.171 334.1C190.962 336.696 190.108 339.64 190.611 342.936C190.852 344.479 191.446 345.741 192.39 346.726C193.336 347.709 194.513 348.123 195.922 347.968C197.653 347.813 198.887 347.135 199.628 345.93C200.372 344.728 200.537 343.061 200.124 340.932Z" fill="#6E7266"/>
<path d="M123.718 336.846C122.924 334.363 123.085 331.85 124.198 329.311C125.251 326.72 126.778 324.97 128.779 324.062C132.533 322.367 137.293 322.715 143.062 325.106C134.81 322.744 129.839 325.041 128.149 331.997C127.287 335.472 127.567 338.16 128.991 340.065C130.415 341.97 132.875 343.301 136.374 344.059C136.995 344.207 138.003 344.409 139.397 344.668L146.856 313.277C147.347 311.209 146.948 309.747 145.657 308.895C144.749 308.277 143.966 307.892 143.31 307.736L157.377 311.078C156.722 310.923 155.85 310.917 154.76 311.057C153.223 311.239 152.21 312.364 151.718 314.433L145.082 342.359C144.673 344.083 145.082 345.345 146.311 346.148C147.231 346.729 147.983 347.093 148.568 347.231C148.293 347.166 146.251 346.716 142.441 345.884C138.564 345.035 136.504 344.583 136.263 344.524C132.359 343.633 129.463 342.636 127.576 341.532C125.689 340.428 124.404 338.867 123.718 336.846Z" fill="#6E7266"/>
<path d="M85.1027 319.183L97.9321 294.101C98.8844 292.239 98.8667 290.757 97.8778 289.655C97.1403 288.84 96.4869 288.287 95.9188 287.996L108.365 294.363C108.081 294.218 107.64 294.03 107.039 293.803C106.407 293.639 105.641 293.735 104.743 294.092C103.843 294.448 103.105 295.115 102.526 296.092L95.7482 309.344L111.838 317.574L118.47 304.607C119.422 302.745 119.405 301.263 118.416 300.161C117.71 299.361 117.073 298.817 116.504 298.526L128.951 304.892C128.666 304.747 128.225 304.56 127.625 304.334C126.993 304.169 126.219 304.262 125.304 304.609C124.39 304.956 123.643 305.619 123.064 306.597L110.089 331.964C109.138 333.825 109.155 335.307 110.143 336.41C110.85 337.208 111.487 337.753 112.055 338.044L99.561 331.653C100.129 331.944 100.944 332.141 102.004 332.246C103.477 332.402 104.689 331.549 105.641 329.688L111.571 318.093L95.4814 309.863L89.5512 321.458C88.5999 323.319 88.6022 324.793 89.559 325.879C90.2655 326.678 90.9011 327.223 91.4692 327.513L78.9766 321.123C79.5447 321.413 80.3752 321.618 81.4671 321.74C82.9389 321.896 84.1504 321.044 85.1027 319.183Z" fill="#6E7266"/>
<path d="M55.0104 295.485C55.4467 292.915 56.7413 290.757 58.8974 289.011C61.0225 287.193 63.1831 286.34 65.3768 286.451C69.4909 286.67 73.5595 289.166 77.586 293.94C71.3391 288.052 65.8685 287.81 61.1731 293.213C58.8121 295.904 57.8276 298.421 58.2163 300.767C58.6073 303.111 60.1798 305.424 62.9395 307.706C63.4234 308.121 64.2262 308.764 65.3469 309.635L86.3899 285.176C87.7764 283.564 88.0931 282.083 87.3368 280.732C86.813 279.767 86.2958 279.064 85.7842 278.625L96.7442 288.056C96.2348 287.617 95.4629 287.209 94.4286 286.834C92.9801 286.289 91.5626 286.823 90.1762 288.434L71.4565 310.193C70.3004 311.536 70.0855 312.846 70.8087 314.124C71.358 315.063 71.8596 315.729 72.3159 316.122C72.101 315.938 70.4931 314.6 67.492 312.112C64.4378 309.578 62.8154 308.229 62.6271 308.068C59.5685 305.483 57.4545 303.267 56.285 301.42C55.1156 299.573 54.6926 297.595 55.0104 295.485Z" fill="#6E7266"/>
<path d="M42.1185 245.443L46.5902 237.134C47.217 236.05 47.6622 234.868 47.9224 233.591C48.1838 232.313 48.2613 231.313 48.1538 230.59L47.9578 229.652L52.0387 236.378C51.5791 237.942 50.6588 239.909 49.2779 242.28L44.65 250.745C43.5548 252.695 43.1805 254.538 43.5282 256.274C43.7142 256.991 43.918 257.531 44.1384 257.895C44.2547 258.155 44.3876 258.407 44.5326 258.65L45.4429 260.149L58.0142 252.586C58.8027 252.107 59.2977 251.455 59.5003 250.627C59.6543 249.581 59.4173 248.542 58.7916 247.513L65.7672 259.011C65.4549 258.496 64.8801 257.891 64.044 257.196C62.8724 256.29 61.4837 256.323 59.878 257.298L35.154 272.295C33.5172 273.288 32.8661 274.533 33.1939 276.033C33.4242 277.096 33.6767 277.854 33.9525 278.309C33.7133 277.915 32.5161 276.008 30.3611 272.592C28.5605 269.829 27.3634 267.923 26.7687 266.876C24.906 263.736 23.7189 261.181 23.2084 259.212C22.6979 257.243 22.8429 255.414 23.6425 253.726C24.3158 252.034 25.6403 250.629 27.6148 249.514C30.3368 247.987 33.0676 247.74 35.8062 248.772C37.6578 249.432 39.1274 250.488 40.2159 251.941C39.8461 250.511 40.4806 248.343 42.1185 245.443ZM42.2071 256.455C40.5017 254.258 38.5925 252.938 36.4818 252.499C34.3722 252.061 32.2304 252.477 30.061 253.752C26.9514 255.597 25.3833 257.812 25.3568 260.397C25.3313 262.984 26.6258 266.197 29.246 270.037L44.9435 260.454C43.9701 258.847 43.0587 257.515 42.2071 256.455Z" fill="#6E7266"/>
<path d="M37.8808 208.801C36.7003 207.92 35.5076 207.18 34.3061 206.584C33.1057 205.988 32.1865 205.625 31.5486 205.499L30.6428 205.291L40.3979 204.516L49.4909 232.412C49.3048 231.84 48.8386 231.097 48.0933 230.184C47.1155 229.013 45.7002 228.729 43.8464 229.332L16.7072 238.178C14.8545 238.781 13.9165 239.851 13.8955 241.386C13.8323 242.45 13.9054 243.301 14.1136 243.943L5.59766 217.813L13.107 213.409C12.6895 213.844 12.0893 214.747 11.3063 216.12C10.4459 217.594 9.85895 218.94 9.54888 220.159C9.05608 221.848 8.8778 223.415 9.0129 224.862C9.08267 226.219 9.61201 228.412 10.5998 231.444L11.622 234.577L27.8444 229.291L26.9219 226.46C25.7015 222.944 23.4889 221.13 20.2852 221.019L19.7304 221.033L30.191 217.623C29.8089 217.823 29.3194 218.262 28.7203 218.941C26.9031 220.801 26.4889 223.246 27.4778 226.278L28.4003 229.109L41.6925 224.777C42.636 224.47 43.3891 224.093 43.9516 223.648C44.5164 223.204 44.8519 222.721 44.9616 222.201C45.0723 221.68 45.1122 221.23 45.079 220.848C45.0491 220.467 44.9616 220.057 44.8187 219.62L43.7811 216.436C42.8033 213.439 40.8376 210.893 37.8808 208.801Z" fill="#6E7266"/>
<path d="M2.42744 204.153L0.107422 176.93L8.57356 174.234C8.02429 174.459 7.21034 175.134 6.13172 176.256C5.01656 177.347 4.13285 178.472 3.48502 179.63C2.87484 180.82 2.50384 181.669 2.36874 182.179C1.67107 184.017 1.49501 186.949 1.8383 190.973L2.1539 194.68L5.86151 194.364L8.82826 194.111L19.156 193.231L18.8448 189.576C18.4317 185.984 16.6787 183.768 13.5835 182.93L13.0408 182.816L24.2157 181.863C23.7672 182.008 23.1714 182.325 22.4306 182.816C20.167 184.218 19.1659 186.455 19.4284 189.527L19.7395 193.181L34.5688 191.917C36.4049 191.76 37.5301 190.972 37.942 189.549C38.2466 188.528 38.3695 187.681 38.3119 187.011L39.5035 200.993C39.4525 200.392 39.2067 199.596 38.767 198.602C38.1192 197.27 36.8612 196.684 34.9897 196.843L34.0362 196.924L31.2821 197.159L7.07855 199.222L6.17823 199.298C4.30671 199.458 3.1827 200.247 2.80507 201.667C2.49832 202.689 2.37318 203.518 2.42744 204.153Z" fill="#6E7266"/>
<path d="M36.8335 144.821C36.1624 143.509 35.4193 142.32 34.6043 141.254C33.7903 140.19 33.1248 139.459 32.6076 139.063L31.8867 138.477L40.983 142.084L36.8368 171.131C36.9221 170.534 36.8313 169.663 36.5655 168.515C36.2056 167.033 35.0605 166.152 33.1303 165.878L4.87149 161.843C2.94239 161.568 1.62899 162.115 0.932432 163.482C0.405306 164.409 0.0952371 165.206 0 165.873L3.88368 138.667L12.5658 138.027C11.9999 138.233 11.063 138.779 9.75515 139.666C8.33213 140.61 7.21254 141.558 6.39527 142.516C5.20813 143.814 4.35543 145.142 3.83938 146.5C3.3045 147.748 2.8095 149.951 2.35878 153.108L1.89366 156.37L18.785 158.782L19.2058 155.836C19.662 152.142 18.476 149.539 15.6488 148.025L15.146 147.792L26.0385 149.347C25.6066 149.358 24.9732 149.536 24.136 149.881C21.6864 150.749 20.2357 152.761 19.7838 155.919L19.363 158.865L33.2034 160.841C34.1857 160.982 35.0273 160.977 35.7283 160.826C36.4304 160.676 36.9453 160.39 37.2731 159.972C37.602 159.554 37.8368 159.166 37.9763 158.81C38.117 158.455 38.22 158.048 38.2842 157.592L38.7582 154.276C39.2045 151.156 38.5633 148.003 36.8335 144.821Z" fill="#6E7266"/>
<path d="M37.666 112.676L46.9816 111.176C48.2241 111.015 49.4323 110.649 50.605 110.08C51.7789 109.511 52.6183 108.965 53.1277 108.44L53.7522 107.715L50.8918 115.043C49.3703 115.629 47.2485 116.094 44.5275 116.439L34.995 117.911C32.7802 118.226 31.0892 119.049 29.922 120.381C29.4657 120.964 29.16 121.453 29.0061 121.85C28.871 122.102 28.7514 122.359 28.6473 122.623L28.0106 124.257L41.6571 129.641C42.5154 129.977 43.3349 129.974 44.1156 129.63C45.0392 129.116 45.7191 128.298 46.1576 127.175L41.2685 139.703C41.4866 139.143 41.6184 138.319 41.6616 137.233C41.6693 135.752 40.7989 134.671 39.0481 133.987L12.1115 123.472C10.3297 122.777 8.94321 123.015 7.95208 124.187C7.24777 125.017 6.79927 125.678 6.60547 126.172C6.77269 125.743 7.55895 123.634 8.96204 119.845C10.0606 116.737 10.8468 114.628 11.3175 113.517C12.6785 110.131 13.9841 107.635 15.2377 106.032C16.4913 104.43 18.0306 103.433 19.8578 103.042C21.6108 102.547 23.53 102.746 25.6174 103.636C28.4834 104.87 30.3394 106.887 31.1855 109.69C31.7868 111.561 31.8411 113.37 31.3483 115.118C32.2608 113.953 34.366 113.139 37.666 112.676ZM28.9762 119.442C29.685 116.751 29.572 114.434 28.6374 112.491C27.7027 110.549 26.0704 109.102 23.7393 108.154C20.3849 106.808 17.6718 106.908 15.6021 108.459C13.5334 110.01 11.7693 112.993 10.3131 117.407L27.4646 124.046C28.1479 122.295 28.6529 120.761 28.9762 119.442Z" fill="#6E7266"/>
<path d="M64.1709 87.0542C64.151 85.5803 64.0137 84.1849 63.7567 82.8682C63.4998 81.5526 63.2274 80.6036 62.9406 80.0189L62.5541 79.1728L69.1044 86.4418L52.4955 110.631C52.8377 110.135 53.1433 109.313 53.4146 108.167C53.7491 106.677 53.1134 105.381 51.5055 104.278L27.9742 88.1218C26.3684 87.0188 24.9487 86.9258 23.7162 87.8427C22.8336 88.4407 22.2013 89.0165 21.8203 89.5714L37.375 66.916L45.4391 70.1961C44.8411 70.1297 43.758 70.2028 42.1922 70.4176C40.4989 70.6303 39.0748 70.9846 37.9176 71.4796C36.2775 72.1164 34.9243 72.9281 33.8589 73.9159C32.8246 74.7974 31.4049 76.5516 29.5998 79.1806L27.7339 81.8981L41.8002 91.5558L43.4845 89.1018C45.5321 85.9944 45.6251 83.1351 43.7636 80.5238L43.4159 80.0919L52.4867 86.32C52.0957 86.1384 51.4479 86.0166 50.5453 85.9546C47.9651 85.6445 45.7713 86.8039 43.9663 89.4329L42.2819 91.887L53.8067 99.8005C54.625 100.362 55.3825 100.732 56.078 100.908C56.7734 101.085 57.3603 101.059 57.841 100.828C58.3205 100.599 58.7025 100.356 58.986 100.099C59.2695 99.8437 59.5419 99.5247 59.8022 99.1449L61.6981 96.3841C63.4843 93.7828 64.3082 90.6732 64.1709 87.0542Z" fill="#6E7266"/>
<path d="M84.992 53.2359L73.7319 40.3446C71.867 38.2095 69.9889 37.3801 68.0985 37.854C66.8483 38.1475 65.8261 38.5927 65.0321 39.1918L74.1195 31.2539C73.4462 31.9372 72.8803 32.8785 72.423 34.0778C71.7485 35.8917 72.3311 37.8518 74.1727 39.9603L94.7328 63.5005L94.6929 63.5359L93.9532 63.3355L56.8118 55.4762C55.6181 55.2957 55.2028 55.6822 55.5649 56.6346C55.7376 57.0487 56.0577 57.5216 56.5239 58.0554L70.8261 74.4295C71.619 75.3376 72.4529 75.9976 73.3299 76.4073C74.2059 76.8193 75.0342 76.9998 75.816 76.9522C76.5979 76.9046 77.2457 76.8104 77.7574 76.6687C78.269 76.527 78.7462 76.3343 79.1903 76.0873L79.7407 75.7473L70.4916 83.8248C70.8383 83.5225 71.2181 82.9322 71.6278 82.0551C72.8272 79.5502 72.4008 77.1216 70.3499 74.7728L56.0831 58.4385C55.1972 57.4242 54.2858 56.6102 53.3468 55.9934C52.4088 55.3777 51.5882 54.989 50.8828 54.8284C50.1774 54.6678 49.504 54.5981 48.8629 54.6169C48.2206 54.6368 47.7266 54.7166 47.3767 54.855C47.029 54.9945 46.7743 55.134 46.6148 55.2747L46.4199 55.3743L53.226 49.4298L84.3486 56.0532C85.5081 56.3577 86.2401 56.3068 86.5435 55.9004C86.7916 55.5936 86.2744 54.7044 84.992 53.2359Z" fill="#6E7266"/>
<path d="M95.8704 39.3226C98.3056 43.4975 101.546 46.2516 105.591 47.5872C109.621 48.8917 113.578 48.6337 117.46 46.8142C120.518 45.3192 122.595 43.3978 123.694 41.0457C124.664 38.8364 125.115 37.1764 125.046 36.0657L125.005 35.2573C125.155 36.368 125.175 37.5419 125.069 38.7766C125.028 39.8231 124.819 41.0103 124.444 42.3369C123.466 45.3391 121.614 47.7643 118.887 49.6093C116.335 51.3302 113.663 52.4 110.871 52.8186C108.078 53.2372 105.45 53.0245 102.984 52.1774C98.0542 50.4864 94.3588 47.3225 91.8959 42.688C90.5394 40.0778 89.7476 37.4477 89.5183 34.7977C89.288 32.1488 89.6025 29.7269 90.463 27.5309C92.1185 23.171 95.1207 19.7126 99.4706 17.1512C101.62 15.9031 103.768 15.0105 105.912 14.4746C108.438 13.7525 110.541 13.5333 112.218 13.8179L113.025 13.8965L116.317 20.7491C112.743 18.0393 108.958 16.7137 104.964 16.7735C100.368 16.8909 96.8959 18.7071 94.5515 22.2198C93.1052 24.4257 92.5106 27.0436 92.7697 30.0724C93.0089 33.1488 94.0443 36.2329 95.8704 39.3226Z" fill="#6E7266"/>
<path d="M155.374 35.0266C156.38 33.9491 157.245 32.8462 157.972 31.7177C158.695 30.5904 159.157 29.7166 159.354 29.0954L159.66 28.2183L159.358 37.9989L130.631 43.9712C131.221 43.8482 132.011 43.4673 133 42.8272C134.271 41.9845 134.711 40.608 134.314 38.6999L128.505 10.7523C128.108 8.8442 127.147 7.79548 125.623 7.60501C124.572 7.42561 123.716 7.40346 123.059 7.54078L149.965 1.94727L153.518 9.89513C153.131 9.43334 152.3 8.73678 151.021 7.80877C149.651 6.79107 148.377 6.06017 147.199 5.61721C145.574 4.94169 144.036 4.59175 142.583 4.56739C141.227 4.48766 138.989 4.77226 135.866 5.4212L132.64 6.09118L136.113 22.7964L139.027 22.1907C142.655 21.3634 144.702 19.3646 145.165 16.1919L145.212 15.6393L147.451 26.4121C147.294 26.0101 146.912 25.4741 146.303 24.8053C144.654 22.7953 142.269 22.1143 139.146 22.7643L136.231 23.3701L139.076 37.0576C139.279 38.0288 139.569 38.8195 139.95 39.4275C140.329 40.0366 140.772 40.4242 141.277 40.5903C141.782 40.7564 142.226 40.8461 142.608 40.856C142.991 40.8671 143.407 40.8261 143.858 40.732L147.137 40.051C150.222 39.4098 152.969 37.7343 155.374 35.0266Z" fill="#6E7266"/>
</svg>
