<svg width="367" height="367" viewBox="0 0 367 367" fill="none" xmlns="http://www.w3.org/2000/svg">
<path d="M131.378 55.6042L116.886 21.4246C115.756 18.7615 114.141 17.4951 112.043 17.6252C110.531 17.6252 109.333 17.8165 108.441 18.1914L127.389 10.1641C126.551 10.5199 125.555 11.2622 124.403 12.3909C122.872 13.8564 122.658 15.8957 123.768 18.509L138.072 52.2409C140.162 57.1729 140.166 61.1598 138.076 64.1979C136.403 66.7079 134.015 68.621 130.907 69.9372C129.379 70.5838 127.753 71.043 126.03 71.307C124.308 71.571 122.432 71.3644 120.396 70.6833C118.359 70.0023 116.882 68.6363 115.952 66.5892C115.511 65.5523 115.45 64.5154 115.768 63.4785C116.086 62.4416 116.736 61.7147 117.724 61.2976C119.106 60.7122 120.319 60.8231 121.36 61.6343C122.401 62.4455 123.075 63.689 123.377 65.361C123.764 67.2359 124.667 68.5406 126.088 69.2752C127.508 70.0099 129.031 70.0367 130.658 69.348C132.779 68.4488 133.869 66.968 133.927 64.9057C133.984 62.8472 133.135 59.7441 131.378 55.6042Z" fill="#F9F9F9"/>
<path d="M165.818 1.3076L190.259 50.2175C191.112 51.9125 192.242 53.3434 193.639 54.5065C195.43 55.8495 197.183 56.4962 198.902 56.4426L177.451 58.4169C177.826 58.3825 178.607 58.0955 179.794 57.556C180.571 57.2155 181.145 56.7602 181.524 56.1863C182.638 54.2579 182.657 52.4251 181.581 50.6919L174.461 35.613L155.969 37.3118L152.027 51.4724C151.135 54.0283 151.246 56.1289 152.364 57.7741C153.485 59.4194 155.468 60.219 158.316 60.1731L142.465 61.6309C146.388 60.9995 149.221 57.5675 150.963 51.327L165.504 0.607422L165.818 1.3076ZM163.395 14.4428C162.649 14.5117 161.715 16.6429 160.593 20.8325L156.302 36.4777L174.067 34.7636L166.611 18.6669C165.214 15.7782 164.142 14.3701 163.395 14.4428Z" fill="#F9F9F9"/>
<path d="M214.783 63.7461L205.152 8.14238C204.172 3.74597 201.653 1.0331 197.604 0L204.85 1.84428L214.274 4.24337L221.753 6.14887L220.857 6.08765C219.104 5.80833 217.47 6.08381 215.962 6.91411C214.45 7.74442 213.845 9.52749 214.143 12.2556L219.353 45.839C219.824 48.5557 220.574 50.048 221.611 50.312C222.285 50.4841 222.951 50.266 223.606 49.6576C224.153 49.2444 225.435 47.6909 227.449 44.9972L243.675 22.6785C245.7 19.7131 246.419 17.2298 245.826 15.2248C245.229 13.2237 243.388 11.7735 240.299 10.8743L257.283 15.198C255.036 15.1215 252.961 15.6036 251.066 16.6406C249.168 17.6775 247.174 19.5868 245.084 22.3723L214.783 63.7461Z" fill="#F9F9F9"/>
<path d="M286.507 32.3129L274.033 85.5436C273.604 87.3917 273.558 89.2131 273.891 90.9999C274.412 93.1771 275.346 94.7955 276.701 95.8516L258.94 83.665C259.25 83.8754 260.031 84.1547 261.29 84.4991C262.105 84.7363 262.84 84.7517 263.499 84.5527C265.589 83.7798 266.775 82.3832 267.055 80.3667L271.223 64.2199L255.912 53.7131L243.824 62.0849C241.5 63.4815 240.241 65.1689 240.053 67.1509C239.862 69.1329 240.876 71.0116 243.096 72.7984L229.975 63.7914C233.397 65.8155 237.768 64.9852 243.096 61.2967L286.714 31.582L286.507 32.3129ZM276.249 40.8646C275.629 40.4398 273.547 41.4844 270.01 43.9905L256.704 53.2807L271.46 63.3093L276.019 46.1677C276.789 43.0569 276.865 41.2893 276.249 40.8646Z" fill="#F9F9F9"/>
<path d="M338.617 94.2544L329.427 100.885C330.92 98.6392 331.949 95.2798 332.512 90.8032C333.094 86.9044 332.642 83.2197 331.153 79.7418C329.633 76.2217 327.409 73.7883 324.485 72.4492C322.801 71.7413 321.021 71.6265 319.153 72.0971C317.285 72.5677 315.639 73.5128 314.207 74.9208C310.207 78.8159 309.92 84.7043 313.358 92.5824C316.458 99.7105 317.649 105.408 316.929 109.662C316.209 113.921 313.515 117.345 308.852 119.939C304.443 122.614 300.125 123.153 295.899 121.554C291.792 119.939 288.263 117.058 285.311 112.911C280.324 105.806 277.916 98.907 278.084 92.2151L290.441 83.2389C287.589 87.3673 285.809 91.886 285.097 96.7988C284.4 101.83 284.909 106.429 286.628 110.596C288.462 114.747 290.827 117.701 293.721 119.457C296.707 121.344 299.842 121.217 303.122 119.082C305.966 117.257 307.673 114.533 308.251 110.902C308.78 107.305 307.65 102.064 304.856 95.1765C302.414 89.158 301.668 84.3638 302.617 80.7978C303.65 77.1706 305.936 74.2321 309.465 71.9862C313.27 69.4801 317.281 68.9253 321.507 70.3295C325.844 71.7145 329.591 74.6721 332.749 79.1985C334.269 81.3373 335.536 83.6445 336.539 86.12C337.542 88.5955 338.158 90.6387 338.384 92.2533L338.617 94.2544Z" fill="#F9F9F9"/>
<path d="M329.267 130.458C322.311 132.7 317.194 136.591 313.906 142.131C310.671 147.656 309.768 153.583 311.199 159.907C312.413 164.904 314.579 168.597 317.699 170.98C320.65 173.131 322.955 174.332 324.616 174.592L325.822 174.795C324.134 174.653 322.392 174.305 320.604 173.75C319.073 173.352 317.389 172.656 315.548 171.673C311.429 169.255 308.451 165.735 306.61 161.113C304.895 156.789 304.183 152.496 304.47 148.238C304.757 143.975 305.925 140.165 307.976 136.801C312.076 130.071 317.944 125.641 325.592 123.506C329.887 122.35 334.028 122.033 338.017 122.553C342.002 123.073 345.477 124.321 348.444 126.302C354.346 130.159 358.48 135.711 360.854 142.965C361.998 146.547 362.618 150.005 362.718 153.346C362.963 157.309 362.607 160.485 361.642 162.869L361.263 164.036L350.075 166.672C355.238 162.276 358.423 157.118 359.629 151.203C360.946 144.377 359.391 138.665 354.963 134.066C352.172 131.215 348.497 129.49 343.942 128.889C339.315 128.235 334.423 128.759 329.267 130.458Z" fill="#F9F9F9"/>
<path d="M325.433 215.968L312.246 221.416C310.474 222.086 308.824 223.046 307.297 224.289C305.77 225.537 304.721 226.631 304.154 227.58L303.488 228.865L305.146 217.089C307.182 215.696 310.141 214.273 314.026 212.819L327.542 207.336C330.692 206.101 332.893 204.302 334.149 201.934C334.62 200.916 334.895 200.094 334.987 199.455C335.098 199.038 335.186 198.617 335.244 198.192L335.615 195.568L313.659 192.396C312.277 192.201 311.075 192.491 310.045 193.268C308.866 194.347 308.147 195.786 307.894 197.592L310.727 177.463C310.6 178.362 310.692 179.621 311.006 181.235C311.511 183.416 313.169 184.702 315.982 185.1L359.286 191.191C362.153 191.592 364.109 190.758 365.158 188.688C365.904 187.223 366.337 186.094 366.448 185.299C366.352 185.987 365.927 189.366 365.185 195.426C364.649 200.381 364.228 203.755 363.922 205.553C363.099 211.009 362.046 215.134 360.756 217.927C359.47 220.72 357.552 222.721 354.999 223.934C352.591 225.269 349.698 225.648 346.318 225.062C341.671 224.247 338.237 221.925 336.017 218.095C334.478 215.551 333.77 212.911 333.885 210.168C332.943 212.211 330.126 214.139 325.433 215.968ZM335.864 202.994C335.76 207.199 336.733 210.565 338.784 213.102C340.836 215.635 343.741 217.192 347.5 217.777C352.905 218.592 356.863 217.498 359.37 214.499C361.874 211.495 363.432 206.498 364.04 199.497L336.488 195.701C336.09 198.506 335.879 200.939 335.864 202.994Z" fill="#F9F9F9"/>
<path d="M341.911 257.13L302.906 240.004C301.777 239.507 300.705 239.285 299.687 239.334C298.668 239.384 297.834 239.587 297.179 239.947C296.525 240.306 295.932 240.788 295.4 241.4C294.868 242.016 294.492 242.495 294.282 242.843C294.071 243.187 293.888 243.532 293.738 243.876L302.531 223.869C302.121 224.799 301.876 226.096 301.788 227.757C301.742 228.79 302.087 229.803 302.822 230.798C303.557 231.793 304.582 232.581 305.911 233.163L344.916 250.289C347.81 251.559 350.068 251.352 351.687 249.665C352.855 248.479 353.64 247.419 354.049 246.489L345.257 266.496C345.689 265.517 345.946 264.193 346.03 262.536C346.179 260.202 344.805 258.4 341.911 257.13Z" fill="#F9F9F9"/>
<path d="M308.439 307.257C304.531 306.726 301.208 304.874 298.467 301.702C295.616 298.58 294.219 295.358 294.28 292.037C294.41 285.815 297.981 279.54 304.998 273.223C296.404 282.949 296.305 291.225 304.703 298.055C308.883 301.487 312.738 302.853 316.263 302.153C319.788 301.445 323.207 298.958 326.518 294.673C327.122 293.923 328.056 292.679 329.316 290.942L291.313 260.348C288.81 258.331 286.555 257.926 284.55 259.135C283.114 259.976 282.077 260.791 281.441 261.583L295.156 244.561C294.517 245.353 293.943 246.539 293.426 248.119C292.672 250.334 293.549 252.45 296.056 254.467L329.863 281.683C331.949 283.363 333.94 283.623 335.835 282.467C337.228 281.591 338.212 280.799 338.782 280.091C338.514 280.424 336.573 282.919 332.96 287.575C329.281 292.316 327.322 294.83 327.084 295.124C323.329 299.873 320.083 303.175 317.35 305.031C314.617 306.886 311.643 307.632 308.439 307.257Z" fill="#F9F9F9"/>
<path d="M295.599 328.269L255.43 351.926L246.776 341.358C249.409 343.29 252.311 344.626 255.484 345.368C259.951 346.405 264.495 345.563 269.111 342.843L271.603 341.373L247.12 299.837C245.516 297.113 243.461 295.9 240.961 296.191C239.231 296.524 237.903 296.964 236.98 297.511L256.372 286.09C255.496 286.606 254.489 287.536 253.36 288.891C251.89 290.934 251.959 293.321 253.563 296.045L278.045 337.582L280.954 335.868C285.479 333.201 288.388 329.589 289.686 325.036C290.497 322.507 290.857 319.744 290.773 316.748L290.673 315.314L295.599 328.269Z" fill="#F9F9F9"/>
<path d="M156.287 311.465C154.527 311.285 152.938 311.69 151.533 312.677C150.125 313.665 149.141 315.084 148.582 316.936C148.838 314.587 149.815 312.402 151.506 310.382C153.091 308.407 155.304 307.432 158.144 307.439C160.502 307.482 162.481 307.937 164.081 308.809C165.681 309.682 167.185 311.243 168.594 313.5L172.751 320.024C176.089 315.872 178.971 312.88 181.405 311.051C183.894 309.222 186.963 308.331 190.608 308.373C194.577 308.43 197.823 309.636 200.353 311.989C202.933 314.457 204.112 317.743 203.89 321.868C204.093 324.718 202.566 327.951 199.304 331.571C198.795 332.195 197.769 333.036 196.223 334.1L193.08 336.223L189.291 338.397L185.746 340.421L186.577 341.744C189.199 345.819 190.772 348.616 191.3 350.139C191.97 352.148 192.257 354.198 192.173 356.288C191.982 359.712 190.638 362.348 188.146 364.204C185.654 366.056 182.561 366.936 178.868 366.836C176.027 366.771 173.44 365.834 171.097 364.024C168.919 362.272 167.84 359.815 167.863 356.655C168.012 351.78 170.5 347.943 175.335 345.142C175.614 344.939 176.406 344.488 177.723 343.791C179.04 343.095 179.89 342.621 180.276 342.368L169.306 325.51L165.493 330.178C162.316 334.444 160.72 337.647 160.712 339.793C160.705 341.936 162.155 343.497 165.065 344.476L149.003 343.814C150.504 343.876 152.299 343.252 154.389 341.943C155.767 341.086 157.045 339.962 158.228 338.565C159.526 337.008 161.057 335.033 162.818 332.642C164.299 330.561 165.884 328.506 167.576 326.486L168.931 324.852L164.617 318.241L162.186 314.763C160.391 312.704 158.427 311.606 156.287 311.465ZM186.841 356.793C186.764 354.7 186.336 352.775 185.551 351.03C184.762 349.389 183.304 346.971 181.183 343.776L180.651 343.03C179.384 343.834 178.496 344.495 177.995 345.012C174.102 348.39 172.157 352.599 172.165 357.638C172.177 359.999 172.778 362.019 173.968 363.703C175.162 365.386 176.827 366.27 178.967 366.362C181.589 366.522 183.591 365.788 184.973 364.154C186.351 362.52 186.975 360.068 186.841 356.793ZM188.54 313.596C183.894 313.19 178.829 315.662 173.352 321.011L185.367 339.839L187.438 338.397C190.979 335.806 193.543 333.446 195.132 331.314C196.72 329.18 197.574 326.696 197.689 323.861C197.808 320.973 197.061 318.581 195.45 316.691C193.842 314.805 191.538 313.772 188.54 313.596Z" fill="#F9F9F9"/>
<path d="M109.413 300.538L90.0561 332.218C88.548 334.69 88.4599 336.737 89.7882 338.363C90.6724 339.591 91.5222 340.456 92.3452 340.961L74.7832 330.24C75.5602 330.715 76.743 331.09 78.3316 331.369C80.4139 331.763 82.1977 330.745 83.6752 328.323L102.78 297.056C105.574 292.484 108.816 290.161 112.499 290.089C115.515 289.985 118.462 290.812 121.345 292.568C122.761 293.433 124.078 294.489 125.295 295.736C126.512 296.98 127.438 298.629 128.07 300.679C128.705 302.726 128.457 304.727 127.327 306.675C126.742 307.635 125.934 308.286 124.904 308.634C123.879 308.978 122.906 308.875 121.992 308.316C120.713 307.536 120.097 306.484 120.147 305.167C120.2 303.851 120.82 302.581 122.003 301.357C123.301 299.952 123.837 298.46 123.607 296.88C123.381 295.296 122.512 294.045 121.004 293.127C119.04 291.925 117.199 291.902 115.492 293.054C113.789 294.202 111.76 296.7 109.413 300.538Z" fill="#F9F9F9"/>
<path d="M38.2592 294.156C35.4496 290.574 33.6084 286.863 32.7357 283.018C31.863 279.172 31.9778 275.561 33.0687 272.182C35.0745 265.368 39.0707 259.781 45.0536 255.431C51.7522 250.518 58.7762 248.445 66.1256 249.218C73.6281 250.01 79.9516 253.729 85.1039 260.378C87.9173 263.96 89.7661 267.77 90.6503 271.807C91.5384 275.844 91.481 279.651 90.4743 283.232C88.3919 290.383 84.5259 296 78.8799 300.09C72.0243 305.328 64.8586 307.306 57.3791 306.024C49.8613 304.766 43.4842 300.813 38.2592 294.156ZM50.1713 262.341C44.3569 267.174 40.4947 272.79 38.5769 279.199C36.6668 285.531 37.4324 290.888 40.8736 295.273C44.4181 300.052 49.1416 302.336 55.0441 302.129C60.9466 301.927 66.9486 299.16 73.0501 293.83C78.7727 288.799 82.5966 283.041 84.5259 276.559C86.5048 269.967 85.9575 264.407 82.8761 259.877C79.3047 254.375 74.6118 251.995 68.7936 252.741C62.9103 253.407 56.7054 256.606 50.1713 262.341ZM91.7106 266.837C89.9613 264.262 89.1996 261.079 89.4293 257.291C89.6857 252.937 89.4063 249.581 88.5833 247.232C87.8637 244.664 86.3402 242.422 84.0129 240.498C81.655 238.535 79.0138 237.643 76.0932 237.827C82.3938 236.224 87.4541 237.938 91.2705 242.977C93.8083 246.298 94.8341 250.293 94.348 254.964C93.7777 259.705 94.2485 263.558 95.7605 266.523C96.8437 268.601 98.3749 270.33 100.342 271.711C102.314 273.097 104.197 273.934 105.992 274.225C99.7031 274.114 94.9451 271.654 91.7106 266.837Z" fill="#F9F9F9"/>
<path d="M33.5044 199.982L11.5366 205.232C7.62845 206.165 5.26288 207.918 4.44373 210.481C3.90784 212.153 3.74325 213.653 3.94995 214.977L0.267578 199.584C0.619736 200.602 1.44655 201.754 2.74418 203.039C4.61215 204.853 7.57486 205.27 11.6438 204.302L33.7685 199.018C49.4051 195.28 58.6876 199.535 61.6158 211.778C63.3498 219.021 62.2551 224.817 58.3354 229.163C55.8933 231.62 52.8272 233.648 49.1295 235.247C46.1132 236.464 42.339 237.615 37.8069 238.698L19.043 243.178C17.2745 243.603 15.8659 244.242 14.8324 245.095C13.7989 245.948 13.1673 246.882 12.9415 247.9C12.7156 248.917 12.6046 249.713 12.6046 250.291C12.6046 250.869 12.662 251.393 12.773 251.863L7.67055 230.529C7.75476 230.897 7.87726 231.279 8.02654 231.685C8.17966 232.087 8.50119 232.618 8.9835 233.273C9.46963 233.927 10.0323 234.482 10.6639 234.937C11.2955 235.392 12.195 235.698 13.3625 235.859C14.5338 236.02 15.82 235.936 17.2248 235.599L40.4443 230.051C47.1659 228.444 52.1459 225.988 55.3765 222.682C58.6493 219.311 59.6101 215.034 58.2589 209.85C56.9459 204.822 54.2779 201.494 50.2511 199.868C46.2242 198.242 40.6471 198.272 33.5044 199.982Z" fill="#F9F9F9"/>
<path d="M55.9089 149.528C54.9061 147.534 53.796 145.732 52.5749 144.114C51.3538 142.499 50.3548 141.386 49.5778 140.781L48.4945 139.886L62.2133 145.43L55.6486 189.293C55.7826 188.394 55.6563 187.074 55.2659 185.337C54.7338 183.095 53.0113 181.752 50.0983 181.315L7.40679 174.933C4.49383 174.497 2.50338 175.312 1.43543 177.371C0.631588 178.767 0.153112 179.969 0 180.975L6.14747 139.894L19.2845 139.014C18.4271 139.32 17.0031 140.135 15.0165 141.462C12.8538 142.874 11.1504 144.298 9.90635 145.736C8.0958 147.688 6.79436 149.685 6.002 151.732C5.17902 153.614 4.40965 156.935 3.69385 161.703L2.9589 166.631L28.4789 170.449L29.1449 165.999C29.8722 160.421 28.1076 156.472 23.8472 154.158L23.0855 153.802L39.5412 156.262C38.8905 156.273 37.9297 156.537 36.6589 157.05C32.9459 158.336 30.7335 161.362 30.0177 166.133L29.3516 170.583L50.2591 173.709C51.7443 173.931 53.0189 173.931 54.0792 173.709C55.1434 173.487 55.9204 173.066 56.4218 172.435C56.9233 171.804 57.2831 171.222 57.4975 170.686C57.7157 170.151 57.8726 169.539 57.976 168.85L58.7262 163.841C59.4305 159.124 58.4927 154.353 55.9089 149.528Z" fill="#F9F9F9"/>
<path d="M62.5116 102.031L76.7778 101.771C78.6726 101.794 80.5597 101.503 82.4353 100.902C84.3148 100.302 85.6889 99.6628 86.5655 98.9856L87.6564 98.0329L81.8152 108.39C79.4113 108.945 76.1386 109.186 71.9892 109.121L57.4015 109.293C54.0177 109.293 51.3114 110.166 49.2789 111.91C48.4712 112.687 47.9123 113.353 47.5946 113.911C47.3382 114.259 47.1047 114.619 46.8941 114.99L45.5889 117.301L64.8771 128.263C66.0906 128.948 67.3155 129.116 68.5595 128.772C70.0524 128.198 71.2466 127.119 72.1423 125.531L62.1518 143.238C62.5996 142.442 62.9709 141.241 63.2695 139.623C63.5948 137.407 62.5231 135.605 60.0465 134.209L21.956 112.737C19.4373 111.317 17.309 111.378 15.575 112.924C14.3463 114.015 13.531 114.91 13.1367 115.61C13.4774 115.002 15.1042 112.013 18.0095 106.642C20.3177 102.222 21.9407 99.2343 22.8823 97.6733C25.6421 92.8945 28.1302 89.4395 30.3465 87.3083C32.5628 85.1772 35.0815 84.0141 37.8988 83.8151C40.628 83.4478 43.4606 84.1518 46.3965 85.9309C50.4234 88.3873 52.7736 91.804 53.4435 96.1773C53.9449 99.1081 53.6425 101.825 52.5325 104.334C54.1478 102.789 57.4742 102.02 62.5116 102.031ZM48.0616 110.303C49.6923 106.427 50.0176 102.934 49.0339 99.8274C48.0501 96.7206 45.9142 94.2106 42.6261 92.2937C37.8911 89.5619 33.8107 89.1372 30.381 91.0158C26.9513 92.8983 23.6785 96.9846 20.555 103.282L44.8195 116.869C46.2128 114.397 47.2922 112.209 48.0616 110.303Z" fill="#F9F9F9"/>
<path d="M69.5718 41.6908L81.128 31.2227C78.6858 34.5935 78.104 39.0585 79.3863 44.6178L83.8533 63.668C84.5845 66.549 86.0467 69.1967 88.2438 71.6186L98.2842 82.6952C99.4746 84.0038 100.784 84.6963 102.223 84.7652C104.263 84.9412 106.093 84.3672 107.716 83.0434L92.0525 97.2344C92.6458 96.6949 93.1702 96.0751 93.6219 95.3787C94.1999 94.4222 94.4793 93.2131 94.4564 91.7516C94.4334 90.29 93.9358 89.0236 92.9635 87.9523L83.3596 77.243C81.4533 75.1387 79.3212 73.7421 76.9671 73.0611L52.9821 65.5084C50.6242 64.8235 48.4232 64.6475 46.3753 64.9842C44.3313 65.3209 42.8116 65.9369 41.8164 66.836L57.5372 52.7062C56.0596 54.1907 55.5582 55.6906 56.0329 57.2134C56.5075 58.7362 57.809 59.8343 59.9411 60.5038L80.4389 67.1995C82.8696 67.9647 83.75 66.9814 83.0878 64.2572L79.0495 46.8791C78.4791 43.8526 77.3346 41.8554 75.6197 40.8797C73.901 39.9041 71.8838 40.1757 69.5718 41.6908Z" fill="#F9F9F9"/>
</svg>
