<?xml version="1.0" encoding="utf-8"?>
<!-- Generator: Adobe Illustrator 16.0.0, SVG Export Plug-In . SVG Version: 6.00 Build 0)  -->
<!DOCTYPE svg PUBLIC "-//W3C//DTD SVG 1.1//EN" "http://www.w3.org/Graphics/SVG/1.1/DTD/svg11.dtd">
<svg version="1.1" id="Layer_1" xmlns="http://www.w3.org/2000/svg" xmlns:xlink="http://www.w3.org/1999/xlink" x="0px" y="0px"
	 width="841.89px" height="595.28px" viewBox="0 0 841.89 595.28" enable-background="new 0 0 841.89 595.28" xml:space="preserve">
<g>
	<path d="M119.296,140.715l-3.786-8.933c-0.295-0.696-0.717-1.027-1.265-0.993c-0.395,0-0.708,0.05-0.941,0.148l4.95-2.098
		c-0.219,0.093-0.479,0.287-0.78,0.582c-0.4,0.383-0.456,0.916-0.166,1.599l3.737,8.816c0.546,1.289,0.547,2.331,0.001,3.125
		c-0.437,0.656-1.061,1.156-1.873,1.5c-0.399,0.169-0.824,0.289-1.274,0.358s-0.94,0.015-1.472-0.163s-0.918-0.535-1.161-1.07
		c-0.115-0.271-0.131-0.542-0.048-0.813c0.083-0.271,0.253-0.461,0.511-0.57c0.361-0.153,0.678-0.124,0.95,0.088
		c0.272,0.212,0.448,0.537,0.527,0.974c0.101,0.49,0.337,0.831,0.708,1.023s0.769,0.199,1.194,0.019
		c0.554-0.235,0.839-0.622,0.854-1.161C119.977,142.608,119.755,141.797,119.296,140.715z"/>
	<path d="M128.294,126.524l6.385,12.783c0.223,0.443,0.518,0.817,0.883,1.121c0.468,0.351,0.926,0.52,1.375,0.506l-5.604,0.516
		c0.098-0.009,0.302-0.084,0.612-0.225c0.203-0.089,0.353-0.208,0.452-0.358c0.291-0.504,0.296-0.983,0.015-1.436l-1.86-3.941
		l-4.831,0.444l-1.03,3.701c-0.233,0.668-0.204,1.217,0.088,1.647c0.293,0.43,0.811,0.639,1.555,0.627l-4.141,0.381
		c1.025-0.165,1.765-1.062,2.22-2.693l3.799-13.256L128.294,126.524z M127.661,129.957c-0.195,0.018-0.439,0.575-0.732,1.67
		l-1.121,4.089l4.641-0.448l-1.948-4.207C128.136,130.306,127.856,129.938,127.661,129.957z"/>
	<path d="M141.086,142.843l-2.516-14.532c-0.256-1.149-0.914-1.858-1.972-2.128l1.893,0.482l2.462,0.627l1.954,0.498l-0.234-0.016
		c-0.458-0.073-0.885-0.001-1.279,0.216c-0.395,0.217-0.553,0.683-0.475,1.396l1.361,8.777c0.123,0.71,0.319,1.1,0.59,1.169
		c0.176,0.045,0.35-0.012,0.521-0.171c0.143-0.108,0.478-0.514,1.004-1.218l4.239-5.833c0.529-0.775,0.717-1.424,0.562-1.948
		c-0.156-0.523-0.637-0.902-1.444-1.137l4.437,1.13c-0.587-0.02-1.129,0.106-1.624,0.377c-0.496,0.271-1.017,0.77-1.563,1.498
		L141.086,142.843z"/>
	<path d="M159.823,134.628l-3.259,13.912c-0.112,0.483-0.124,0.959-0.037,1.426c0.136,0.569,0.38,0.992,0.734,1.268l-4.64-3.185
		c0.081,0.055,0.285,0.128,0.614,0.218c0.213,0.062,0.405,0.066,0.577,0.014c0.546-0.202,0.856-0.567,0.929-1.094l1.089-4.22
		l-4-2.746l-3.158,2.188c-0.607,0.365-0.936,0.806-0.985,1.324c-0.05,0.518,0.215,1.009,0.795,1.476l-3.428-2.354
		c0.894,0.529,2.036,0.312,3.428-0.652l11.395-7.766L159.823,134.628z M157.143,136.863c-0.162-0.111-0.706,0.162-1.63,0.817
		l-3.476,2.428l3.855,2.621l1.191-4.48C157.284,137.436,157.304,136.974,157.143,136.863z"/>
	<path d="M173.437,150.816l-2.401,1.733c0.39-0.587,0.659-1.465,0.806-2.635c0.152-1.019,0.034-1.982-0.355-2.891
		c-0.397-0.92-0.978-1.556-1.742-1.906c-0.44-0.185-0.905-0.215-1.393-0.092s-0.918,0.37-1.292,0.738
		c-1.045,1.018-1.12,2.557-0.222,4.616c0.81,1.863,1.121,3.352,0.933,4.464c-0.188,1.113-0.892,2.008-2.11,2.686
		c-1.152,0.699-2.28,0.84-3.384,0.422c-1.073-0.422-1.995-1.175-2.766-2.259c-1.303-1.857-1.932-3.66-1.888-5.409l3.228-2.346
		c-0.745,1.079-1.21,2.26-1.396,3.544c-0.182,1.315-0.049,2.517,0.4,3.606c0.479,1.085,1.097,1.857,1.853,2.316
		c0.78,0.493,1.599,0.46,2.456-0.098c0.743-0.477,1.189-1.189,1.34-2.138c0.138-0.94-0.157-2.31-0.887-4.11
		c-0.638-1.573-0.833-2.826-0.585-3.758c0.27-0.948,0.867-1.716,1.789-2.303c0.994-0.655,2.042-0.8,3.146-0.433
		c1.133,0.362,2.112,1.135,2.937,2.318c0.397,0.559,0.728,1.162,0.99,1.809c0.262,0.647,0.423,1.181,0.482,1.603L173.437,150.816z"
		/>
	<path d="M170.993,160.279c-1.817,0.586-3.154,1.603-4.013,3.051c-0.845,1.444-1.081,2.993-0.707,4.646
		c0.317,1.306,0.883,2.271,1.698,2.894c0.771,0.562,1.373,0.876,1.807,0.944l0.315,0.053c-0.441-0.037-0.896-0.128-1.363-0.273
		c-0.4-0.104-0.84-0.286-1.321-0.543c-1.076-0.632-1.854-1.552-2.335-2.76c-0.448-1.13-0.634-2.252-0.559-3.365
		c0.075-1.114,0.38-2.11,0.916-2.989c1.071-1.759,2.604-2.917,4.602-3.475c1.122-0.302,2.204-0.385,3.246-0.249
		c1.041,0.136,1.949,0.462,2.724,0.98c1.542,1.008,2.622,2.459,3.242,4.355c0.299,0.936,0.461,1.84,0.487,2.713
		c0.064,1.036-0.029,1.866-0.281,2.489l-0.099,0.305l-2.923,0.689c1.349-1.149,2.181-2.497,2.496-4.043
		c0.344-1.784-0.062-3.277-1.219-4.479c-0.729-0.745-1.689-1.196-2.879-1.353C173.618,159.698,172.34,159.835,170.993,160.279z"/>
	<path d="M169.992,182.627l-3.445,1.424c-0.463,0.175-0.894,0.426-1.293,0.751c-0.399,0.326-0.673,0.612-0.821,0.86l-0.174,0.336
		l0.433-3.078c0.532-0.364,1.305-0.736,2.32-1.116l3.531-1.433c0.823-0.323,1.398-0.793,1.726-1.412
		c0.123-0.266,0.195-0.481,0.219-0.648c0.029-0.109,0.052-0.219,0.067-0.33l0.097-0.686l-5.736-0.829
		c-0.361-0.051-0.675,0.025-0.944,0.228c-0.308,0.282-0.496,0.658-0.562,1.13l0.74-5.261c-0.033,0.235-0.009,0.564,0.073,0.986
		c0.132,0.57,0.565,0.906,1.3,1.01l11.313,1.592c0.749,0.105,1.26-0.113,1.534-0.654c0.195-0.383,0.308-0.678,0.337-0.886
		c-0.025,0.18-0.136,1.063-0.33,2.647c-0.14,1.295-0.25,2.177-0.33,2.647c-0.215,1.426-0.49,2.504-0.827,3.234
		c-0.336,0.73-0.837,1.253-1.504,1.57c-0.629,0.349-1.385,0.448-2.268,0.295c-1.214-0.213-2.111-0.82-2.691-1.821
		c-0.402-0.665-0.587-1.355-0.557-2.072C171.954,181.645,171.218,182.149,169.992,182.627z M172.717,179.236
		c-0.027,1.099,0.227,1.979,0.763,2.642c0.536,0.662,1.295,1.069,2.277,1.222c1.412,0.213,2.446-0.073,3.101-0.857
		c0.654-0.785,1.061-2.091,1.22-3.921l-7.198-0.992C172.776,178.063,172.721,178.699,172.717,179.236z"/>
	<path d="M174.298,193.386l-10.19-4.476c-0.295-0.13-0.575-0.188-0.841-0.175s-0.484,0.066-0.655,0.16s-0.326,0.22-0.465,0.38
		c-0.139,0.161-0.237,0.286-0.292,0.377c-0.055,0.09-0.103,0.18-0.142,0.27l2.297-5.229c-0.107,0.243-0.171,0.582-0.194,1.016
		c-0.012,0.27,0.078,0.535,0.27,0.795c0.192,0.26,0.46,0.466,0.807,0.618l10.19,4.476c0.756,0.332,1.346,0.278,1.769-0.163
		c0.305-0.31,0.51-0.587,0.617-0.83l-2.297,5.229c0.113-0.256,0.18-0.602,0.202-1.035
		C175.413,194.189,175.054,193.718,174.298,193.386z"/>
	<path d="M165.553,206.486c-1.021-0.139-1.889-0.623-2.605-1.452c-0.745-0.816-1.11-1.658-1.094-2.526
		c0.034-1.626,0.967-3.266,2.8-4.917c-2.245,2.542-2.271,4.705-0.077,6.49c1.092,0.897,2.099,1.254,3.02,1.071
		c0.921-0.185,1.814-0.835,2.679-1.955c0.158-0.196,0.402-0.521,0.731-0.975l-9.928-7.996c-0.654-0.527-1.243-0.633-1.767-0.317
		c-0.375,0.22-0.646,0.433-0.812,0.64l3.583-4.449c-0.167,0.207-0.317,0.517-0.452,0.93c-0.197,0.579,0.032,1.132,0.687,1.659
		l8.832,7.113c0.545,0.439,1.065,0.507,1.56,0.205c0.364-0.229,0.621-0.436,0.77-0.621c-0.07,0.087-0.577,0.739-1.521,1.956
		c-0.961,1.239-1.473,1.896-1.535,1.973c-0.981,1.241-1.829,2.104-2.543,2.589S166.39,206.584,165.553,206.486z"/>
	<path d="M162.198,211.979l-10.494,6.183l-2.261-2.762c0.688,0.505,1.446,0.854,2.275,1.048c1.167,0.271,2.354,0.051,3.56-0.66
		l0.651-0.384l-6.396-10.856c-0.419-0.712-0.956-1.029-1.609-0.953c-0.452,0.087-0.799,0.202-1.04,0.345l5.066-2.985
		c-0.229,0.135-0.492,0.378-0.787,0.732c-0.384,0.534-0.366,1.158,0.053,1.87l6.396,10.856l0.76-0.448
		c1.182-0.697,1.942-1.641,2.281-2.831c0.212-0.661,0.306-1.383,0.284-2.166l-0.026-0.375L162.198,211.979z"/>
	<path d="M125.804,207.586c-0.46-0.047-0.875,0.059-1.242,0.317c-0.368,0.258-0.625,0.629-0.771,1.113
		c0.067-0.614,0.322-1.185,0.764-1.713c0.414-0.516,0.992-0.771,1.734-0.769c0.616,0.011,1.133,0.13,1.551,0.358
		s0.811,0.636,1.179,1.226l1.086,1.705c0.872-1.085,1.625-1.867,2.261-2.345c0.65-0.478,1.452-0.711,2.404-0.7
		c1.037,0.015,1.885,0.33,2.546,0.945c0.674,0.645,0.982,1.504,0.924,2.582c0.053,0.745-0.346,1.59-1.198,2.536
		c-0.133,0.163-0.401,0.383-0.805,0.661l-0.821,0.555l-0.99,0.568l-0.926,0.529l0.217,0.346c0.685,1.065,1.096,1.796,1.234,2.194
		c0.175,0.525,0.25,1.061,0.228,1.607c-0.05,0.895-0.401,1.584-1.052,2.069c-0.651,0.484-1.459,0.714-2.424,0.688
		c-0.742-0.017-1.418-0.262-2.03-0.735c-0.569-0.458-0.851-1.1-0.845-1.926c0.039-1.274,0.689-2.277,1.952-3.009
		c0.073-0.053,0.28-0.171,0.624-0.353c0.344-0.182,0.566-0.306,0.667-0.372l-2.866-4.406l-0.996,1.22
		c-0.83,1.115-1.247,1.952-1.249,2.513c-0.002,0.56,0.377,0.968,1.137,1.224l-4.196-0.173c0.392,0.016,0.861-0.147,1.407-0.489
		c0.36-0.224,0.694-0.518,1.003-0.883c0.339-0.407,0.739-0.923,1.199-1.548c0.387-0.544,0.801-1.081,1.243-1.609l0.354-0.427
		l-1.127-1.728l-0.635-0.909C126.876,207.91,126.363,207.623,125.804,207.586z M133.786,219.433c-0.02-0.547-0.132-1.05-0.337-1.506
		c-0.206-0.429-0.587-1.061-1.141-1.896l-0.139-0.195c-0.331,0.21-0.563,0.383-0.694,0.518c-1.017,0.883-1.525,1.983-1.523,3.3
		c0.003,0.617,0.16,1.145,0.471,1.585c0.312,0.44,0.747,0.671,1.306,0.695c0.685,0.042,1.208-0.15,1.569-0.577
		C133.658,220.93,133.821,220.289,133.786,219.433z M134.23,208.143c-1.214-0.106-2.537,0.54-3.968,1.938l3.139,4.921l0.541-0.377
		c0.925-0.677,1.595-1.294,2.01-1.851c0.415-0.558,0.638-1.207,0.668-1.948c0.031-0.755-0.164-1.38-0.585-1.874
		C135.615,208.459,135.013,208.189,134.23,208.143z"/>
	<path d="M113.558,204.731l-5.057,8.28c-0.394,0.646-0.417,1.181-0.07,1.606c0.231,0.321,0.453,0.547,0.668,0.679l-4.588-2.802
		c0.203,0.124,0.512,0.222,0.927,0.295c0.544,0.103,1.01-0.163,1.396-0.796l4.991-8.172c0.73-1.195,1.577-1.802,2.539-1.821
		c0.788-0.027,1.558,0.189,2.311,0.648c0.37,0.226,0.714,0.502,1.032,0.828c0.318,0.325,0.56,0.756,0.725,1.292
		c0.166,0.535,0.101,1.058-0.194,1.567c-0.153,0.251-0.364,0.421-0.633,0.512c-0.268,0.09-0.522,0.063-0.761-0.083
		c-0.334-0.204-0.495-0.479-0.482-0.823c0.014-0.344,0.176-0.676,0.485-0.996c0.339-0.367,0.479-0.757,0.419-1.17
		c-0.059-0.414-0.286-0.741-0.68-0.981c-0.513-0.314-0.994-0.32-1.44-0.019C114.701,203.075,114.171,203.728,113.558,204.731z"/>
	<path d="M94.969,203.062c-0.734-0.936-1.215-1.906-1.443-2.911c-0.228-1.005-0.198-1.949,0.087-2.832
		c0.524-1.781,1.568-3.241,3.131-4.378c1.75-1.284,3.585-1.826,5.505-1.624c1.96,0.207,3.612,1.179,4.958,2.917
		c0.735,0.936,1.218,1.932,1.449,2.987c0.232,1.055,0.217,2.05-0.046,2.986c-0.544,1.869-1.554,3.337-3.029,4.406
		c-1.791,1.369-3.663,1.886-5.617,1.551C98,205.835,96.334,204.802,94.969,203.062z M98.081,194.747
		c-1.519,1.263-2.528,2.731-3.029,4.406c-0.499,1.655-0.299,3.055,0.6,4.201c0.926,1.249,2.16,1.846,3.702,1.792
		c1.542-0.053,3.11-0.776,4.704-2.169c1.495-1.315,2.494-2.82,2.998-4.514c0.517-1.723,0.374-3.176-0.431-4.36
		c-0.933-1.438-2.159-2.06-3.679-1.865C101.409,192.412,99.788,193.248,98.081,194.747z M108.933,195.922
		c-0.457-0.673-0.656-1.505-0.596-2.495c0.067-1.138-0.006-2.015-0.221-2.629c-0.188-0.671-0.586-1.257-1.194-1.76
		c-0.616-0.513-1.306-0.746-2.069-0.698c1.646-0.419,2.968,0.029,3.965,1.346c0.663,0.868,0.931,1.912,0.804,3.133
		c-0.149,1.239-0.026,2.246,0.369,3.021c0.283,0.543,0.683,0.995,1.197,1.356c0.515,0.362,1.007,0.581,1.476,0.657
		C111.021,197.824,109.778,197.181,108.933,195.922z"/>
	<path d="M93.728,178.449l-5.739,1.372c-1.021,0.244-1.639,0.702-1.853,1.372c-0.14,0.437-0.183,0.829-0.129,1.175l-0.962-4.023
		c0.092,0.266,0.308,0.567,0.647,0.903c0.488,0.474,1.262,0.583,2.325,0.33l5.78-1.381c4.085-0.977,6.51,0.135,7.275,3.335
		c0.453,1.893,0.167,3.408-0.857,4.544c-0.638,0.642-1.439,1.172-2.405,1.59c-0.788,0.318-1.774,0.619-2.958,0.902l-4.902,1.171
		c-0.462,0.111-0.83,0.278-1.1,0.501s-0.435,0.467-0.494,0.733c-0.059,0.266-0.088,0.474-0.088,0.625
		c0,0.151,0.015,0.288,0.044,0.411l-1.333-5.576c0.022,0.096,0.054,0.196,0.093,0.302c0.04,0.105,0.124,0.244,0.25,0.415
		c0.127,0.171,0.274,0.316,0.439,0.435c0.165,0.119,0.4,0.199,0.705,0.241c0.306,0.042,0.642,0.02,1.009-0.068l6.066-1.45
		c1.756-0.42,3.057-1.062,3.901-1.926c0.855-0.881,1.106-1.999,0.753-3.354c-0.343-1.314-1.04-2.184-2.092-2.609
		S95.594,178.002,93.728,178.449z"/>
	<path d="M99.58,165.263c-0.262-0.521-0.552-0.992-0.871-1.415c-0.319-0.422-0.58-0.713-0.783-0.871l-0.283-0.234l3.584,1.449
		l-1.715,11.464c0.035-0.235,0.002-0.58-0.1-1.034c-0.139-0.586-0.589-0.937-1.35-1.051l-11.153-1.668
		c-0.761-0.114-1.281,0.099-1.56,0.637c-0.21,0.365-0.335,0.679-0.375,0.942l1.606-10.737l3.432-0.23
		c-0.224,0.08-0.596,0.293-1.115,0.64c-0.565,0.369-1.01,0.741-1.335,1.117c-0.473,0.51-0.813,1.032-1.02,1.567
		c-0.215,0.492-0.416,1.36-0.603,2.606l-0.192,1.288l6.667,0.998l0.174-1.163c0.19-1.458-0.271-2.49-1.384-3.095l-0.199-0.093
		l4.299,0.643c-0.17,0.003-0.421,0.072-0.753,0.206c-0.97,0.336-1.548,1.127-1.735,2.374l-0.174,1.163l5.462,0.817
		c0.388,0.058,0.721,0.058,0.998,0c0.278-0.058,0.481-0.168,0.612-0.333s0.225-0.317,0.281-0.457c0.057-0.14,0.098-0.3,0.125-0.48
		l0.196-1.309C100.5,167.771,100.255,166.524,99.58,165.263z"/>
	<path d="M101.304,152.85l3.727-0.068c0.495,0.006,0.988-0.07,1.478-0.227c0.491-0.157,0.85-0.324,1.079-0.501l0.285-0.249
		l-1.526,2.707c-0.628,0.145-1.483,0.208-2.567,0.191l-3.811,0.045c-0.884,0-1.591,0.228-2.122,0.684
		c-0.211,0.203-0.357,0.377-0.44,0.523c-0.067,0.091-0.128,0.185-0.183,0.282l-0.341,0.604l5.039,2.865
		c0.317,0.179,0.637,0.223,0.962,0.133c0.39-0.15,0.702-0.432,0.936-0.847l-2.61,4.628c0.117-0.208,0.214-0.522,0.292-0.945
		c0.085-0.579-0.195-1.05-0.842-1.415l-9.951-5.612c-0.658-0.371-1.214-0.355-1.667,0.049c-0.321,0.285-0.534,0.519-0.637,0.702
		c0.089-0.159,0.514-0.94,1.273-2.344c0.603-1.155,1.027-1.936,1.273-2.344c0.721-1.249,1.371-2.152,1.95-2.709
		c0.579-0.557,1.237-0.861,1.973-0.913c0.713-0.096,1.453,0.088,2.22,0.553c1.052,0.642,1.666,1.535,1.841,2.678
		c0.131,0.766,0.052,1.476-0.238,2.132C99.119,153.048,99.988,152.847,101.304,152.85z M97.529,155.012
		c0.426-1.013,0.511-1.926,0.254-2.738s-0.815-1.468-1.674-1.969c-1.237-0.714-2.303-0.825-3.199-0.334
		c-0.896,0.492-1.751,1.56-2.567,3.206l6.339,3.551C97.046,156.082,97.328,155.51,97.529,155.012z"/>
	<path d="M103.148,137.079l3.019-2.736c-0.638,0.881-0.79,2.048-0.455,3.501l1.167,4.979c0.191,0.753,0.573,1.445,1.147,2.078
		l2.623,2.895c0.311,0.342,0.653,0.523,1.029,0.541c0.533,0.046,1.011-0.104,1.435-0.45l-4.092,3.709
		c0.155-0.141,0.292-0.303,0.41-0.485c0.151-0.25,0.224-0.566,0.218-0.948s-0.136-0.713-0.39-0.993l-2.509-2.799
		c-0.498-0.55-1.055-0.915-1.67-1.093l-6.266-1.974c-0.616-0.179-1.191-0.225-1.726-0.137c-0.534,0.088-0.931,0.249-1.191,0.484
		l4.107-3.693c-0.386,0.388-0.517,0.78-0.393,1.178s0.464,0.685,1.021,0.86l5.355,1.75c0.635,0.2,0.865-0.057,0.692-0.769
		l-1.055-4.542c-0.149-0.791-0.448-1.313-0.896-1.568C104.279,136.612,103.752,136.683,103.148,137.079z"/>
</g>
</svg>
