<svg width="24" height="27" viewBox="0 0 24 27" fill="none" xmlns="http://www.w3.org/2000/svg">
<path fill-rule="evenodd" clip-rule="evenodd" d="M11.6701 1C10.9556 1 10.4091 1.6369 10.5178 2.34313L11.6701 9.83307L12.8224 2.34313C12.931 1.63691 12.3846 1 11.6701 1ZM10.2772 13.2832L1.38152 16.7433C0.144385 17.2245 -0.372748 18.6952 0.290962 19.8447C0.954672 20.9943 2.4869 21.2818 3.52219 20.451L10.9541 14.4871L9.52942 23.7474C9.32758 25.0594 10.3427 26.2426 11.6701 26.2426C12.9975 26.2426 14.0126 25.0594 13.8108 23.7474L12.39 14.5123L19.79 20.4507C20.8253 21.2815 22.3576 20.994 23.0213 19.8444C23.685 18.6948 23.1678 17.2241 21.9307 16.7429L13.0358 13.2832L21.9272 9.82489C23.1643 9.3437 23.6814 7.873 23.0177 6.72342C22.354 5.57384 20.8218 5.28635 19.7865 6.11714L12.3334 12.0981L13.8108 2.49519C14.0126 1.1832 12.9975 0 11.6701 0C10.3427 0 9.32758 1.1832 9.52942 2.49519L11.0107 12.1233L3.52573 6.11682C2.49044 5.28603 0.958205 5.57353 0.294495 6.72311C-0.369215 7.87268 0.147919 9.34338 1.38505 9.82457L10.2772 13.2832ZM11.6701 16.4095L10.5178 23.8995C10.4091 24.6057 10.9556 25.2426 11.6701 25.2426C12.3846 25.2426 12.931 24.6057 12.8224 23.8995L11.6701 16.4095ZM1.16052 7.22311C0.803252 7.84191 1.08162 8.63357 1.74755 8.89259L8.81019 11.6396L2.89986 6.89675C2.34257 6.44954 1.51779 6.6043 1.16052 7.22311ZM14.5056 14.9279L20.4159 19.6708C20.9732 20.118 21.798 19.9632 22.1552 19.3444C22.5125 18.7256 22.2341 17.9339 21.5682 17.6749L14.5056 14.9279ZM20.4124 6.89707C20.9697 6.44986 21.7944 6.60462 22.1517 7.22342C22.509 7.84223 22.2306 8.63389 21.5647 8.89291L14.502 11.64L20.4124 6.89707ZM1.74402 17.6752L8.80665 14.9282L2.89632 19.6711C2.33904 20.1183 1.51426 19.9635 1.15699 19.3447C0.799719 18.7259 1.07809 17.9343 1.74402 17.6752Z" fill="#FFFFE7"/>
</svg>
